  0
SECTION
  2
HEADER
  9
$ACADVER
  1
AC1024
  9
$ACADMAINTVER
 70
6
  9
$DWGCODEPAGE
  3
ANSI_1252
  9
$LASTSAVEDBY
  1
ezdxf
  9
$INSBASE
 10
0.0
 20
0.0
 30
0.0
  9
$EXTMIN
 10
1e+20
 20
1e+20
 30
1e+20
  9
$EXTMAX
 10
-1e+20
 20
-1e+20
 30
-1e+20
  9
$LIMMIN
 10
0.0
 20
0.0
  9
$LIMMAX
 10
420.0
 20
297.0
  9
$ORTHOMODE
 70
0
  9
$REGENMODE
 70
1
  9
$FILLMODE
 70
1
  9
$QTEXTMODE
 70
0
  9
$MIRRTEXT
 70
1
  9
$LTSCALE
 40
1.0
  9
$ATTMODE
 70
1
  9
$TEXTSIZE
 40
2.5
  9
$TRACEWID
 40
1.0
  9
$TEXTSTYLE
  7
Standard
  9
$CLAYER
  8
0
  9
$CELTYPE
  6
ByLayer
  9
$CECOLOR
 62
256
  9
$CELTSCALE
 40
1.0
  9
$DISPSILH
 70
0
  9
$DIMSCALE
 40
1.0
  9
$DIMASZ
 40
2.5
  9
$DIMEXO
 40
0.625
  9
$DIMDLI
 40
3.75
  9
$DIMRND
 40
0.0
  9
$DIMDLE
 40
0.0
  9
$DIMEXE
 40
1.25
  9
$DIMTP
 40
0.0
  9
$DIMTM
 40
0.0
  9
$DIMTXT
 40
2.5
  9
$DIMCEN
 40
2.5
  9
$DIMTSZ
 40
0.0
  9
$DIMTOL
 70
0
  9
$DIMLIM
 70
0
  9
$DIMTIH
 70
0
  9
$DIMTOH
 70
0
  9
$DIMSE1
 70
0
  9
$DIMSE2
 70
0
  9
$DIMTAD
 70
1
  9
$DIMZIN
 70
8
  9
$DIMBLK
  1

  9
$DIMASO
 70
1
  9
$DIMSHO
 70
1
  9
$DIMPOST
  1

  9
$DIMAPOST
  1

  9
$DIMALT
 70
0
  9
$DIMALTD
 70
3
  9
$DIMALTF
 40
0.03937007874
  9
$DIMLFAC
 40
1.0
  9
$DIMTOFL
 70
1
  9
$DIMTVP
 40
0.0
  9
$DIMTIX
 70
0
  9
$DIMSOXD
 70
0
  9
$DIMSAH
 70
0
  9
$DIMBLK1
  1

  9
$DIMBLK2
  1

  9
$DIMSTYLE
  2
ISO-25
  9
$DIMCLRD
 70
0
  9
$DIMCLRE
 70
0
  9
$DIMCLRT
 70
0
  9
$DIMTFAC
 40
1.0
  9
$DIMGAP
 40
0.625
  9
$DIMJUST
 70
0
  9
$DIMSD1
 70
0
  9
$DIMSD2
 70
0
  9
$DIMTOLJ
 70
0
  9
$DIMTZIN
 70
8
  9
$DIMALTZ
 70
0
  9
$DIMALTTZ
 70
0
  9
$DIMUPT
 70
0
  9
$DIMDEC
 70
2
  9
$DIMTDEC
 70
2
  9
$DIMALTU
 70
2
  9
$DIMALTTD
 70
3
  9
$DIMTXSTY
  7
Standard
  9
$DIMAUNIT
 70
0
  9
$DIMADEC
 70
0
  9
$DIMALTRND
 40
0.0
  9
$DIMAZIN
 70
0
  9
$DIMDSEP
 70
44
  9
$DIMATFIT
 70
3
  9
$DIMFRAC
 70
0
  9
$DIMLDRBLK
  1

  9
$DIMLUNIT
 70
2
  9
$DIMLWD
 70
-2
  9
$DIMLWE
 70
-2
  9
$DIMTMOVE
 70
0
  9
$DIMFXL
 40
1.0
  9
$DIMFXLON
 70
0
  9
$DIMJOGANG
 40
0.785398163397
  9
$DIMTFILL
 70
0
  9
$DIMTFILLCLR
 70
0
  9
$DIMARCSYM
 70
0
  9
$DIMLTYPE
  6

  9
$DIMLTEX1
  6

  9
$DIMLTEX2
  6

  9
$DIMTXTDIRECTION
 70
0
  9
$LUNITS
 70
2
  9
$LUPREC
 70
4
  9
$SKETCHINC
 40
1.0
  9
$FILLETRAD
 40
10.0
  9
$AUNITS
 70
0
  9
$AUPREC
 70
2
  9
$MENU
  1
.
  9
$ELEVATION
 40
0.0
  9
$PELEVATION
 40
0.0
  9
$THICKNESS
 40
0.0
  9
$LIMCHECK
 70
0
  9
$CHAMFERA
 40
0.0
  9
$CHAMFERB
 40
0.0
  9
$CHAMFERC
 40
0.0
  9
$CHAMFERD
 40
0.0
  9
$SKPOLY
 70
0
  9
$TDCREATE
 40
2461204.2519444446
  9
$TDUCREATE
 40
2458532.153996898
  9
$TDUPDATE
 40
2461204.2519444446
  9
$TDUUPDATE
 40
2458532.1544311
  9
$TDINDWG
 40
0.0
  9
$TDUSRTIMER
 40
0.0
  9
$USRTIMER
 70
1
  9
$ANGBASE
 50
0.0
  9
$ANGDIR
 70
0
  9
$PDMODE
 70
0
  9
$PDSIZE
 40
0.0
  9
$PLINEWID
 40
0.0
  9
$SPLFRAME
 70
0
  9
$SPLINETYPE
 70
6
  9
$SPLINESEGS
 70
8
  9
$HANDSEED
  5
18D
  9
$SURFTAB1
 70
6
  9
$SURFTAB2
 70
6
  9
$SURFTYPE
 70
6
  9
$SURFU
 70
6
  9
$SURFV
 70
6
  9
$UCSBASE
  2

  9
$UCSNAME
  2

  9
$UCSORG
 10
0.0
 20
0.0
 30
0.0
  9
$UCSXDIR
 10
1.0
 20
0.0
 30
0.0
  9
$UCSYDIR
 10
0.0
 20
1.0
 30
0.0
  9
$UCSORTHOREF
  2

  9
$UCSORTHOVIEW
 70
0
  9
$UCSORGTOP
 10
0.0
 20
0.0
 30
0.0
  9
$UCSORGBOTTOM
 10
0.0
 20
0.0
 30
0.0
  9
$UCSORGLEFT
 10
0.0
 20
0.0
 30
0.0
  9
$UCSORGRIGHT
 10
0.0
 20
0.0
 30
0.0
  9
$UCSORGFRONT
 10
0.0
 20
0.0
 30
0.0
  9
$UCSORGBACK
 10
0.0
 20
0.0
 30
0.0
  9
$PUCSBASE
  2

  9
$PUCSNAME
  2

  9
$PUCSORG
 10
0.0
 20
0.0
 30
0.0
  9
$PUCSXDIR
 10
1.0
 20
0.0
 30
0.0
  9
$PUCSYDIR
 10
0.0
 20
1.0
 30
0.0
  9
$PUCSORTHOREF
  2

  9
$PUCSORTHOVIEW
 70
0
  9
$PUCSORGTOP
 10
0.0
 20
0.0
 30
0.0
  9
$PUCSORGBOTTOM
 10
0.0
 20
0.0
 30
0.0
  9
$PUCSORGLEFT
 10
0.0
 20
0.0
 30
0.0
  9
$PUCSORGRIGHT
 10
0.0
 20
0.0
 30
0.0
  9
$PUCSORGFRONT
 10
0.0
 20
0.0
 30
0.0
  9
$PUCSORGBACK
 10
0.0
 20
0.0
 30
0.0
  9
$USERI1
 70
0
  9
$USERI2
 70
0
  9
$USERI3
 70
0
  9
$USERI4
 70
0
  9
$USERI5
 70
0
  9
$USERR1
 40
0.0
  9
$USERR2
 40
0.0
  9
$USERR3
 40
0.0
  9
$USERR4
 40
0.0
  9
$USERR5
 40
0.0
  9
$WORLDVIEW
 70
1
  9
$SHADEDGE
 70
3
  9
$SHADEDIF
 70
70
  9
$TILEMODE
 70
1
  9
$MAXACTVP
 70
64
  9
$PINSBASE
 10
0.0
 20
0.0
 30
0.0
  9
$PLIMCHECK
 70
0
  9
$PEXTMIN
 10
1e+20
 20
1e+20
 30
1e+20
  9
$PEXTMAX
 10
-1e+20
 20
-1e+20
 30
-1e+20
  9
$PLIMMIN
 10
0.0
 20
0.0
  9
$PLIMMAX
 10
420.0
 20
297.0
  9
$UNITMODE
 70
0
  9
$VISRETAIN
 70
1
  9
$PLINEGEN
 70
0
  9
$PSLTSCALE
 70
1
  9
$TREEDEPTH
 70
3020
  9
$CMLSTYLE
  2
Standard
  9
$CMLJUST
 70
0
  9
$CMLSCALE
 40
20.0
  9
$PROXYGRAPHICS
 70
1
  9
$MEASUREMENT
 70
1
  9
$CELWEIGHT
370
-1
  9
$ENDCAPS
280
0
  9
$JOINSTYLE
280
0
  9
$LWDISPLAY
290
0
  9
$INSUNITS
 70
6
  9
$HYPERLINKBASE
  1

  9
$STYLESHEET
  1

  9
$XEDIT
290
1
  9
$CEPSNTYPE
380
0
  9
$PSTYLEMODE
290
1
  9
$FINGERPRINTGUID
  2
{5E686D99-815A-49DA-A851-09D4929E3F81}
  9
$VERSIONGUID
  2
{08398E6C-5BEF-4141-9671-26CC7A4E92C1}
  9
$EXTNAMES
290
1
  9
$PSVPSCALE
 40
0.0
  9
$OLESTARTUP
290
0
  9
$SORTENTS
280
127
  9
$INDEXCTL
280
0
  9
$HIDETEXT
280
1
  9
$XCLIPFRAME
280
1
  9
$HALOGAP
280
0
  9
$OBSCOLOR
 70
257
  9
$OBSLTYPE
280
0
  9
$INTERSECTIONDISPLAY
280
0
  9
$INTERSECTIONCOLOR
 70
257
  9
$DIMASSOC
280
2
  9
$PROJECTNAME
  1

  9
$CAMERADISPLAY
290
0
  9
$LENSLENGTH
 40
50.0
  9
$CAMERAHEIGHT
 40
0.0
  9
$STEPSPERSEC
 40
24.0
  9
$STEPSIZE
 40
100.0
  9
$3DDWFPREC
 40
2.0
  9
$PSOLWIDTH
 40
0.005
  9
$PSOLHEIGHT
 40
0.08
  9
$LOFTANG1
 40
1.570796326795
  9
$LOFTANG2
 40
1.570796326795
  9
$LOFTMAG1
 40
0.0
  9
$LOFTMAG2
 40
0.0
  9
$LOFTPARAM
 70
7
  9
$LOFTNORMALS
280
1
  9
$LATITUDE
 40
37.795
  9
$LONGITUDE
 40
-122.394
  9
$NORTHDIRECTION
 40
0.0
  9
$TIMEZONE
 70
-8000
  9
$LIGHTGLYPHDISPLAY
280
1
  9
$TILEMODELIGHTSYNCH
280
1
  9
$CMATERIAL
347
20
  9
$SOLIDHIST
280
0
  9
$SHOWHIST
280
1
  9
$DWFFRAME
280
2
  9
$DGNFRAME
280
2
  9
$REALWORLDSCALE
290
1
  9
$INTERFERECOLOR
 62
256
  9
$CSHADOW
280
0
  9
$SHADOWPLANELOCATION
 40
0.0
  0
ENDSEC
  0
SECTION
  2
CLASSES
  0
CLASS
  1
ACDBDICTIONARYWDFLT
  2
AcDbDictionaryWithDefault
  3
ObjectDBX Classes
 90
0
 91
0
280
0
281
0
  0
CLASS
  1
SUN
  2
AcDbSun
  3
SCENEOE
 90
1153
 91
0
280
0
281
0
  0
CLASS
  1
VISUALSTYLE
  2
AcDbVisualStyle
  3
ObjectDBX Classes
 90
4095
 91
0
280
0
281
0
  0
CLASS
  1
MATERIAL
  2
AcDbMaterial
  3
ObjectDBX Classes
 90
1153
 91
0
280
0
281
0
  0
CLASS
  1
SCALE
  2
AcDbScale
  3
ObjectDBX Classes
 90
1153
 91
0
280
0
281
0
  0
CLASS
  1
TABLESTYLE
  2
AcDbTableStyle
  3
ObjectDBX Classes
 90
4095
 91
0
280
0
281
0
  0
CLASS
  1
MLEADERSTYLE
  2
AcDbMLeaderStyle
  3
ACDB_MLEADERSTYLE_CLASS
 90
4095
 91
0
280
0
281
0
  0
CLASS
  1
DICTIONARYVAR
  2
AcDbDictionaryVar
  3
ObjectDBX Classes
 90
0
 91
0
280
0
281
0
  0
CLASS
  1
CELLSTYLEMAP
  2
AcDbCellStyleMap
  3
ObjectDBX Classes
 90
1152
 91
0
280
0
281
0
  0
CLASS
  1
MENTALRAYRENDERSETTINGS
  2
AcDbMentalRayRenderSettings
  3
SCENEOE
 90
1024
 91
0
280
0
281
0
  0
CLASS
  1
ACDBDETAILVIEWSTYLE
  2
AcDbDetailViewStyle
  3
ObjectDBX Classes
 90
1025
 91
0
280
0
281
0
  0
CLASS
  1
ACDBSECTIONVIEWSTYLE
  2
AcDbSectionViewStyle
  3
ObjectDBX Classes
 90
1025
 91
0
280
0
281
0
  0
CLASS
  1
RASTERVARIABLES
  2
AcDbRasterVariables
  3
ISM
 90
0
 91
0
280
0
281
0
  0
CLASS
  1
LAYOUT
  2
AcDbLayout
  3
ObjectDBX Classes
 90
0
 91
0
280
0
281
0
  0
CLASS
  1
ACDBPLACEHOLDER
  2
AcDbPlaceHolder
  3
ObjectDBX Classes
 90
0
 91
0
280
0
281
0
  0
ENDSEC
  0
SECTION
  2
TABLES
  0
TABLE
  2
VPORT
  5
8
330
0
100
AcDbSymbolTable
 70
1
  0
VPORT
  5
23
330
8
100
AcDbSymbolTableRecord
100
AcDbViewportTableRecord
  2
*Active
 70
0
 10
0.0
 20
0.0
 11
1.0
 21
1.0
 12
0.0
 22
0.0
 13
0.0
 23
0.0
 14
0.5
 24
0.5
 15
0.5
 25
0.5
 16
0.0
 26
0.0
 36
1.0
 17
0.0
 27
0.0
 37
0.0
 40
1000.0
 41
1.34
 42
50.0
 43
0.0
 44
0.0
 50
0.0
 51
0.0
 71
0
 72
1000
 73
1
 74
3
 75
0
 76
0
 77
0
 78
0
281
0
 65
0
146
0.0
  0
ENDTAB
  0
TABLE
  2
LTYPE
  5
2
330
0
100
AcDbSymbolTable
 70
3
  0
LTYPE
  5
24
330
2
100
AcDbSymbolTableRecord
100
AcDbLinetypeTableRecord
  2
ByBlock
 70
0
  3

 72
65
 73
0
 40
0.0
  0
LTYPE
  5
25
330
2
100
AcDbSymbolTableRecord
100
AcDbLinetypeTableRecord
  2
ByLayer
 70
0
  3

 72
65
 73
0
 40
0.0
  0
LTYPE
  5
26
330
2
100
AcDbSymbolTableRecord
100
AcDbLinetypeTableRecord
  2
Continuous
 70
0
  3

 72
65
 73
0
 40
0.0
  0
ENDTAB
  0
TABLE
  2
LAYER
  5
1
330
0
100
AcDbSymbolTable
 70
16
  0
LAYER
  5
27
330
1
100
AcDbSymbolTableRecord
100
AcDbLayerTableRecord
  2
0
 70
0
 62
7
  6
Continuous
370
-3
390
13
347
21
  0
LAYER
  5
28
330
1
100
AcDbSymbolTableRecord
100
AcDbLayerTableRecord
  2
Defpoints
 70
0
 62
7
  6
Continuous
290
0
370
-3
390
13
347
21
  0
LAYER
  5
2F
330
1
100
AcDbSymbolTableRecord
100
AcDbLayerTableRecord
  2
原始结构-墙体
 70
0
 62
7
  6
Continuous
370
-3
390
13
347
21
  0
LAYER
  5
30
330
1
100
AcDbSymbolTableRecord
100
AcDbLayerTableRecord
  2
原始结构-墙填充
 70
0
 62
7
  6
Continuous
370
-3
390
13
347
21
  0
LAYER
  5
31
330
1
100
AcDbSymbolTableRecord
100
AcDbLayerTableRecord
  2
原始结构-门
 70
0
 62
7
  6
Continuous
370
-3
390
13
347
21
  0
LAYER
  5
32
330
1
100
AcDbSymbolTableRecord
100
AcDbLayerTableRecord
  2
原始结构-窗
 70
0
 62
7
  6
Continuous
370
-3
390
13
347
21
  0
LAYER
  5
33
330
1
100
AcDbSymbolTableRecord
100
AcDbLayerTableRecord
  2
原始结构-梁
 70
0
 62
7
  6
Continuous
370
-3
390
13
347
21
  0
LAYER
  5
34
330
1
100
AcDbSymbolTableRecord
100
AcDbLayerTableRecord
  2
原始结构-柱
 70
0
 62
7
  6
Continuous
370
-3
390
13
347
21
  0
LAYER
  5
35
330
1
100
AcDbSymbolTableRecord
100
AcDbLayerTableRecord
  2
原始结构-管道
 70
0
 62
7
  6
Continuous
370
-3
390
13
347
21
  0
LAYER
  5
36
330
1
100
AcDbSymbolTableRecord
100
AcDbLayerTableRecord
  2
原始结构-尺寸标注
 70
0
 62
7
  6
Continuous
370
-3
390
13
347
21
  0
LAYER
  5
37
330
1
100
AcDbSymbolTableRecord
100
AcDbLayerTableRecord
  2
原始结构-房间标号
 70
0
 62
7
  6
Continuous
370
-3
390
13
347
21
  0
LAYER
  5
38
330
1
100
AcDbSymbolTableRecord
100
AcDbLayerTableRecord
  2
原始结构-辅助线
 70
0
 62
7
  6
Continuous
370
-3
390
13
347
21
  0
LAYER
  5
14F
330
1
100
AcDbSymbolTableRecord
100
AcDbLayerTableRecord
  2
AI方案-布局建议
 70
0
 62
7
  6
Continuous
370
-3
390
13
347
21
  0
LAYER
  5
150
330
1
100
AcDbSymbolTableRecord
100
AcDbLayerTableRecord
  2
AI方案-功能分区
 70
0
 62
7
  6
Continuous
370
-3
390
13
347
21
  0
LAYER
  5
151
330
1
100
AcDbSymbolTableRecord
100
AcDbLayerTableRecord
  2
AI方案-家具建议
 70
0
 62
7
  6
Continuous
370
-3
390
13
347
21
  0
LAYER
  5
152
330
1
100
AcDbSymbolTableRecord
100
AcDbLayerTableRecord
  2
AI方案-动线分析
 70
0
 62
7
  6
Continuous
370
-3
390
13
347
21
  0
ENDTAB
  0
TABLE
  2
STYLE
  5
5
330
0
100
AcDbSymbolTable
 70
1
  0
STYLE
  5
29
330
5
100
AcDbSymbolTableRecord
100
AcDbTextStyleTableRecord
  2
Standard
 70
0
 40
0.0
 41
1.0
 50
0.0
 71
0
 42
2.5
  3
txt
  4

  0
ENDTAB
  0
TABLE
  2
VIEW
  5
7
330
0
100
AcDbSymbolTable
 70
0
  0
ENDTAB
  0
TABLE
  2
UCS
  5
6
330
0
100
AcDbSymbolTable
 70
0
  0
ENDTAB
  0
TABLE
  2
APPID
  5
3
330
0
100
AcDbSymbolTable
 70
3
  0
APPID
  5
2A
330
3
100
AcDbSymbolTableRecord
100
AcDbRegAppTableRecord
  2
ACAD
 70
0
  0
APPID
  5
14C
330
3
100
AcDbSymbolTableRecord
100
AcDbRegAppTableRecord
  2
HATCHBACKGROUNDCOLOR
 70
0
  0
APPID
  5
14D
330
3
100
AcDbSymbolTableRecord
100
AcDbRegAppTableRecord
  2
EZDXF
 70
0
  0
ENDTAB
  0
TABLE
  2
DIMSTYLE
  5
4
330
0
100
AcDbSymbolTable
 70
1
100
AcDbDimStyleTable
  0
DIMSTYLE
105
2B
330
4
100
AcDbSymbolTableRecord
100
AcDbDimStyleTableRecord
  2
Standard
 70
0
 40
1.0
 41
2.5
 42
0.625
 43
3.75
 44
1.25
 45
0.0
 46
0.0
 47
0.0
 48
0.0
 49
2.5
140
2.5
141
2.5
142
0.0
143
0.03937007874
144
1.0
145
0.0
146
1.0
147
0.625
148
0.0
 69
0
 70
0
 71
0
 72
0
 73
0
 74
0
 75
0
 76
0
 77
1
 78
8
 79
3
170
0
171
3
172
1
173
0
174
0
175
0
176
0
177
0
178
0
179
2
271
2
272
2
273
2
274
3
275
0
276
0
277
2
278
44
279
0
280
0
281
0
282
0
283
0
284
8
285
0
286
0
288
0
289
3
290
0
371
-2
372
-2
  0
ENDTAB
  0
TABLE
  2
BLOCK_RECORD
  5
9
330
0
100
AcDbSymbolTable
 70
2
  0
BLOCK_RECORD
  5
17
330
9
100
AcDbSymbolTableRecord
100
AcDbBlockTableRecord
  2
*Model_Space
340
1A
 70
0
280
1
281
0
  0
BLOCK_RECORD
  5
1B
330
9
100
AcDbSymbolTableRecord
100
AcDbBlockTableRecord
  2
*Paper_Space
340
1E
 70
0
280
1
281
0
  0
ENDTAB
  0
ENDSEC
  0
SECTION
  2
BLOCKS
  0
BLOCK
  5
18
330
17
100
AcDbEntity
  8
0
100
AcDbBlockBegin
  2
*Model_Space
 70
0
 10
0.0
 20
0.0
 30
0.0
  3
*Model_Space
  1

  0
ENDBLK
  5
19
330
17
100
AcDbEntity
  8
0
100
AcDbBlockEnd
  0
BLOCK
  5
1C
330
1B
100
AcDbEntity
  8
0
100
AcDbBlockBegin
  2
*Paper_Space
 70
0
 10
0.0
 20
0.0
 30
0.0
  3
*Paper_Space
  1

  0
ENDBLK
  5
1D
330
1B
100
AcDbEntity
  8
0
100
AcDbBlockEnd
  0
ENDSEC
  0
SECTION
  2
ENTITIES
  0
LINE
  5
39
330
17
100
AcDbEntity
  8
原始结构-墙体
100
AcDbLine
 10
0.0
 20
60.0
 30
0.0
 11
5000.0
 21
60.0
 31
0.0
  0
LINE
  5
3A
330
17
100
AcDbEntity
  8
原始结构-墙体
100
AcDbLine
 10
0.0
 20
-60.0
 30
0.0
 11
5000.0
 21
-60.0
 31
0.0
  0
LINE
  5
3B
330
17
100
AcDbEntity
  8
原始结构-墙体
100
AcDbLine
 10
0.0
 20
60.0
 30
0.0
 11
0.0
 21
-60.0
 31
0.0
  0
LINE
  5
3C
330
17
100
AcDbEntity
  8
原始结构-墙体
100
AcDbLine
 10
5000.0
 20
60.0
 30
0.0
 11
5000.0
 21
-60.0
 31
0.0
  0
LWPOLYLINE
  5
3D
330
17
100
AcDbEntity
  8
原始结构-墙填充
100
AcDbPolyline
 90
4
 70
1
 10
0.0
 20
60.0
 10
5000.0
 20
60.0
 10
5000.0
 20
-60.0
 10
0.0
 20
-60.0
  0
LINE
  5
3E
330
17
100
AcDbEntity
  8
原始结构-墙体
100
AcDbLine
 10
4940.0
 20
0.0
 30
0.0
 11
4940.0
 21
4000.0
 31
0.0
  0
LINE
  5
3F
330
17
100
AcDbEntity
  8
原始结构-墙体
100
AcDbLine
 10
5060.0
 20
0.0
 30
0.0
 11
5060.0
 21
4000.0
 31
0.0
  0
LINE
  5
40
330
17
100
AcDbEntity
  8
原始结构-墙体
100
AcDbLine
 10
4940.0
 20
0.0
 30
0.0
 11
5060.0
 21
0.0
 31
0.0
  0
LINE
  5
41
330
17
100
AcDbEntity
  8
原始结构-墙体
100
AcDbLine
 10
4940.0
 20
4000.0
 30
0.0
 11
5060.0
 21
4000.0
 31
0.0
  0
LWPOLYLINE
  5
42
330
17
100
AcDbEntity
  8
原始结构-墙填充
100
AcDbPolyline
 90
4
 70
1
 10
4940.0
 20
0.0
 10
4940.0
 20
4000.0
 10
5060.0
 20
4000.0
 10
5060.0
 20
0.0
  0
LINE
  5
43
330
17
100
AcDbEntity
  8
原始结构-墙体
100
AcDbLine
 10
5000.0
 20
3940.0
 30
0.0
 11
0.0
 21
3940.0
 31
0.0
  0
LINE
  5
44
330
17
100
AcDbEntity
  8
原始结构-墙体
100
AcDbLine
 10
5000.0
 20
4060.0
 30
0.0
 11
0.0
 21
4060.0
 31
0.0
  0
LINE
  5
45
330
17
100
AcDbEntity
  8
原始结构-墙体
100
AcDbLine
 10
5000.0
 20
3940.0
 30
0.0
 11
5000.0
 21
4060.0
 31
0.0
  0
LINE
  5
46
330
17
100
AcDbEntity
  8
原始结构-墙体
100
AcDbLine
 10
0.0
 20
3940.0
 30
0.0
 11
0.0
 21
4060.0
 31
0.0
  0
LWPOLYLINE
  5
47
330
17
100
AcDbEntity
  8
原始结构-墙填充
100
AcDbPolyline
 90
4
 70
1
 10
5000.0
 20
3940.0
 10
0.0
 20
3940.0
 10
0.0
 20
4060.0
 10
5000.0
 20
4060.0
  0
LINE
  5
48
330
17
100
AcDbEntity
  8
原始结构-墙体
100
AcDbLine
 10
60.0
 20
4000.0
 30
0.0
 11
60.0
 21
0.0
 31
0.0
  0
LINE
  5
49
330
17
100
AcDbEntity
  8
原始结构-墙体
100
AcDbLine
 10
-60.0
 20
4000.0
 30
0.0
 11
-60.0
 21
0.0
 31
0.0
  0
LINE
  5
4A
330
17
100
AcDbEntity
  8
原始结构-墙体
100
AcDbLine
 10
60.0
 20
4000.0
 30
0.0
 11
-60.0
 21
4000.0
 31
0.0
  0
LINE
  5
4B
330
17
100
AcDbEntity
  8
原始结构-墙体
100
AcDbLine
 10
60.0
 20
0.0
 30
0.0
 11
-60.0
 21
0.0
 31
0.0
  0
LWPOLYLINE
  5
4C
330
17
100
AcDbEntity
  8
原始结构-墙填充
100
AcDbPolyline
 90
4
 70
1
 10
60.0
 20
4000.0
 10
60.0
 20
0.0
 10
-60.0
 20
0.0
 10
-60.0
 20
4000.0
  0
LINE
  5
4D
330
17
100
AcDbEntity
  8
原始结构-墙体
100
AcDbLine
 10
4340.0
 20
0.0
 30
0.0
 11
4340.0
 21
3000.0
 31
0.0
  0
LINE
  5
4E
330
17
100
AcDbEntity
  8
原始结构-墙体
100
AcDbLine
 10
4460.0
 20
0.0
 30
0.0
 11
4460.0
 21
3000.0
 31
0.0
  0
LINE
  5
4F
330
17
100
AcDbEntity
  8
原始结构-墙体
100
AcDbLine
 10
4340.0
 20
0.0
 30
0.0
 11
4460.0
 21
0.0
 31
0.0
  0
LINE
  5
50
330
17
100
AcDbEntity
  8
原始结构-墙体
100
AcDbLine
 10
4340.0
 20
3000.0
 30
0.0
 11
4460.0
 21
3000.0
 31
0.0
  0
LWPOLYLINE
  5
51
330
17
100
AcDbEntity
  8
原始结构-墙填充
100
AcDbPolyline
 90
4
 70
1
 10
4340.0
 20
0.0
 10
4340.0
 20
3000.0
 10
4460.0
 20
3000.0
 10
4460.0
 20
0.0
  0
LINE
  5
52
330
17
100
AcDbEntity
  8
原始结构-墙体
100
AcDbLine
 10
4400.0
 20
2940.0
 30
0.0
 11
1900.0
 21
2940.0
 31
0.0
  0
LINE
  5
53
330
17
100
AcDbEntity
  8
原始结构-墙体
100
AcDbLine
 10
4400.0
 20
3060.0
 30
0.0
 11
1900.0
 21
3060.0
 31
0.0
  0
LINE
  5
54
330
17
100
AcDbEntity
  8
原始结构-墙体
100
AcDbLine
 10
4400.0
 20
2940.0
 30
0.0
 11
4400.0
 21
3060.0
 31
0.0
  0
LINE
  5
55
330
17
100
AcDbEntity
  8
原始结构-墙体
100
AcDbLine
 10
1900.0
 20
2940.0
 30
0.0
 11
1900.0
 21
3060.0
 31
0.0
  0
LWPOLYLINE
  5
56
330
17
100
AcDbEntity
  8
原始结构-墙填充
100
AcDbPolyline
 90
4
 70
1
 10
4400.0
 20
2940.0
 10
1900.0
 20
2940.0
 10
1900.0
 20
3060.0
 10
4400.0
 20
3060.0
  0
LINE
  5
57
330
17
100
AcDbEntity
  8
原始结构-墙体
100
AcDbLine
 10
1460.0
 20
3000.0
 30
0.0
 11
1460.0
 21
0.0
 31
0.0
  0
LINE
  5
58
330
17
100
AcDbEntity
  8
原始结构-墙体
100
AcDbLine
 10
1340.0
 20
3000.0
 30
0.0
 11
1340.0
 21
0.0
 31
0.0
  0
LINE
  5
59
330
17
100
AcDbEntity
  8
原始结构-墙体
100
AcDbLine
 10
1460.0
 20
3000.0
 30
0.0
 11
1340.0
 21
3000.0
 31
0.0
  0
LINE
  5
5A
330
17
100
AcDbEntity
  8
原始结构-墙体
100
AcDbLine
 10
1460.0
 20
0.0
 30
0.0
 11
1340.0
 21
0.0
 31
0.0
  0
LWPOLYLINE
  5
5B
330
17
100
AcDbEntity
  8
原始结构-墙填充
100
AcDbPolyline
 90
4
 70
1
 10
1460.0
 20
3000.0
 10
1460.0
 20
0.0
 10
1340.0
 20
0.0
 10
1340.0
 20
3000.0
  0
LINE
  5
5C
330
17
100
AcDbEntity
  8
原始结构-墙体
100
AcDbLine
 10
0.0
 20
4060.0
 30
0.0
 11
4000.0
 21
4060.0
 31
0.0
  0
LINE
  5
5D
330
17
100
AcDbEntity
  8
原始结构-墙体
100
AcDbLine
 10
0.0
 20
3940.0
 30
0.0
 11
4000.0
 21
3940.0
 31
0.0
  0
LINE
  5
5E
330
17
100
AcDbEntity
  8
原始结构-墙体
100
AcDbLine
 10
0.0
 20
4060.0
 30
0.0
 11
0.0
 21
3940.0
 31
0.0
  0
LINE
  5
5F
330
17
100
AcDbEntity
  8
原始结构-墙体
100
AcDbLine
 10
4000.0
 20
4060.0
 30
0.0
 11
4000.0
 21
3940.0
 31
0.0
  0
LWPOLYLINE
  5
60
330
17
100
AcDbEntity
  8
原始结构-墙填充
100
AcDbPolyline
 90
4
 70
1
 10
0.0
 20
4060.0
 10
4000.0
 20
4060.0
 10
4000.0
 20
3940.0
 10
0.0
 20
3940.0
  0
LINE
  5
61
330
17
100
AcDbEntity
  8
原始结构-墙体
100
AcDbLine
 10
3940.0
 20
4000.0
 30
0.0
 11
3940.0
 21
7500.0
 31
0.0
  0
LINE
  5
62
330
17
100
AcDbEntity
  8
原始结构-墙体
100
AcDbLine
 10
4060.0
 20
4000.0
 30
0.0
 11
4060.0
 21
7500.0
 31
0.0
  0
LINE
  5
63
330
17
100
AcDbEntity
  8
原始结构-墙体
100
AcDbLine
 10
3940.0
 20
4000.0
 30
0.0
 11
4060.0
 21
4000.0
 31
0.0
  0
LINE
  5
64
330
17
100
AcDbEntity
  8
原始结构-墙体
100
AcDbLine
 10
3940.0
 20
7500.0
 30
0.0
 11
4060.0
 21
7500.0
 31
0.0
  0
LWPOLYLINE
  5
65
330
17
100
AcDbEntity
  8
原始结构-墙填充
100
AcDbPolyline
 90
4
 70
1
 10
3940.0
 20
4000.0
 10
3940.0
 20
7500.0
 10
4060.0
 20
7500.0
 10
4060.0
 20
4000.0
  0
LINE
  5
66
330
17
100
AcDbEntity
  8
原始结构-墙体
100
AcDbLine
 10
4000.0
 20
7440.0
 30
0.0
 11
0.0
 21
7440.0
 31
0.0
  0
LINE
  5
67
330
17
100
AcDbEntity
  8
原始结构-墙体
100
AcDbLine
 10
4000.0
 20
7560.0
 30
0.0
 11
0.0
 21
7560.0
 31
0.0
  0
LINE
  5
68
330
17
100
AcDbEntity
  8
原始结构-墙体
100
AcDbLine
 10
4000.0
 20
7440.0
 30
0.0
 11
4000.0
 21
7560.0
 31
0.0
  0
LINE
  5
69
330
17
100
AcDbEntity
  8
原始结构-墙体
100
AcDbLine
 10
0.0
 20
7440.0
 30
0.0
 11
0.0
 21
7560.0
 31
0.0
  0
LWPOLYLINE
  5
6A
330
17
100
AcDbEntity
  8
原始结构-墙填充
100
AcDbPolyline
 90
4
 70
1
 10
4000.0
 20
7440.0
 10
0.0
 20
7440.0
 10
0.0
 20
7560.0
 10
4000.0
 20
7560.0
  0
LINE
  5
6B
330
17
100
AcDbEntity
  8
原始结构-墙体
100
AcDbLine
 10
60.0
 20
7500.0
 30
0.0
 11
60.0
 21
4000.0
 31
0.0
  0
LINE
  5
6C
330
17
100
AcDbEntity
  8
原始结构-墙体
100
AcDbLine
 10
-60.0
 20
7500.0
 30
0.0
 11
-60.0
 21
4000.0
 31
0.0
  0
LINE
  5
6D
330
17
100
AcDbEntity
  8
原始结构-墙体
100
AcDbLine
 10
60.0
 20
7500.0
 30
0.0
 11
-60.0
 21
7500.0
 31
0.0
  0
LINE
  5
6E
330
17
100
AcDbEntity
  8
原始结构-墙体
100
AcDbLine
 10
60.0
 20
4000.0
 30
0.0
 11
-60.0
 21
4000.0
 31
0.0
  0
LWPOLYLINE
  5
6F
330
17
100
AcDbEntity
  8
原始结构-墙填充
100
AcDbPolyline
 90
4
 70
1
 10
60.0
 20
7500.0
 10
60.0
 20
4000.0
 10
-60.0
 20
4000.0
 10
-60.0
 20
7500.0
  0
LINE
  5
70
330
17
100
AcDbEntity
  8
原始结构-墙体
100
AcDbLine
 10
5000.0
 20
4060.0
 30
0.0
 11
8300.0
 21
4060.0
 31
0.0
  0
LINE
  5
71
330
17
100
AcDbEntity
  8
原始结构-墙体
100
AcDbLine
 10
5000.0
 20
3940.0
 30
0.0
 11
8300.0
 21
3940.0
 31
0.0
  0
LINE
  5
72
330
17
100
AcDbEntity
  8
原始结构-墙体
100
AcDbLine
 10
5000.0
 20
4060.0
 30
0.0
 11
5000.0
 21
3940.0
 31
0.0
  0
LINE
  5
73
330
17
100
AcDbEntity
  8
原始结构-墙体
100
AcDbLine
 10
8300.0
 20
4060.0
 30
0.0
 11
8300.0
 21
3940.0
 31
0.0
  0
LWPOLYLINE
  5
74
330
17
100
AcDbEntity
  8
原始结构-墙填充
100
AcDbPolyline
 90
4
 70
1
 10
5000.0
 20
4060.0
 10
8300.0
 20
4060.0
 10
8300.0
 20
3940.0
 10
5000.0
 20
3940.0
  0
LINE
  5
75
330
17
100
AcDbEntity
  8
原始结构-墙体
100
AcDbLine
 10
8240.0
 20
4000.0
 30
0.0
 11
8240.0
 21
7000.0
 31
0.0
  0
LINE
  5
76
330
17
100
AcDbEntity
  8
原始结构-墙体
100
AcDbLine
 10
8360.0
 20
4000.0
 30
0.0
 11
8360.0
 21
7000.0
 31
0.0
  0
LINE
  5
77
330
17
100
AcDbEntity
  8
原始结构-墙体
100
AcDbLine
 10
8240.0
 20
4000.0
 30
0.0
 11
8360.0
 21
4000.0
 31
0.0
  0
LINE
  5
78
330
17
100
AcDbEntity
  8
原始结构-墙体
100
AcDbLine
 10
8240.0
 20
7000.0
 30
0.0
 11
8360.0
 21
7000.0
 31
0.0
  0
LWPOLYLINE
  5
79
330
17
100
AcDbEntity
  8
原始结构-墙填充
100
AcDbPolyline
 90
4
 70
1
 10
8240.0
 20
4000.0
 10
8240.0
 20
7000.0
 10
8360.0
 20
7000.0
 10
8360.0
 20
4000.0
  0
LINE
  5
7A
330
17
100
AcDbEntity
  8
原始结构-墙体
100
AcDbLine
 10
8300.0
 20
6940.0
 30
0.0
 11
5000.0
 21
6940.0
 31
0.0
  0
LINE
  5
7B
330
17
100
AcDbEntity
  8
原始结构-墙体
100
AcDbLine
 10
8300.0
 20
7060.0
 30
0.0
 11
5000.0
 21
7060.0
 31
0.0
  0
LINE
  5
7C
330
17
100
AcDbEntity
  8
原始结构-墙体
100
AcDbLine
 10
8300.0
 20
6940.0
 30
0.0
 11
8300.0
 21
7060.0
 31
0.0
  0
LINE
  5
7D
330
17
100
AcDbEntity
  8
原始结构-墙体
100
AcDbLine
 10
5000.0
 20
6940.0
 30
0.0
 11
5000.0
 21
7060.0
 31
0.0
  0
LWPOLYLINE
  5
7E
330
17
100
AcDbEntity
  8
原始结构-墙填充
100
AcDbPolyline
 90
4
 70
1
 10
8300.0
 20
6940.0
 10
5000.0
 20
6940.0
 10
5000.0
 20
7060.0
 10
8300.0
 20
7060.0
  0
LINE
  5
7F
330
17
100
AcDbEntity
  8
原始结构-墙体
100
AcDbLine
 10
5060.0
 20
7000.0
 30
0.0
 11
5060.0
 21
4000.0
 31
0.0
  0
LINE
  5
80
330
17
100
AcDbEntity
  8
原始结构-墙体
100
AcDbLine
 10
4940.0
 20
7000.0
 30
0.0
 11
4940.0
 21
4000.0
 31
0.0
  0
LINE
  5
81
330
17
100
AcDbEntity
  8
原始结构-墙体
100
AcDbLine
 10
5060.0
 20
7000.0
 30
0.0
 11
4940.0
 21
7000.0
 31
0.0
  0
LINE
  5
82
330
17
100
AcDbEntity
  8
原始结构-墙体
100
AcDbLine
 10
5060.0
 20
4000.0
 30
0.0
 11
4940.0
 21
4000.0
 31
0.0
  0
LWPOLYLINE
  5
83
330
17
100
AcDbEntity
  8
原始结构-墙填充
100
AcDbPolyline
 90
4
 70
1
 10
5060.0
 20
7000.0
 10
5060.0
 20
4000.0
 10
4940.0
 20
4000.0
 10
4940.0
 20
7000.0
  0
LINE
  5
84
330
17
100
AcDbEntity
  8
原始结构-墙体
100
AcDbLine
 10
5000.0
 20
7060.0
 30
0.0
 11
7000.0
 21
7060.0
 31
0.0
  0
LINE
  5
85
330
17
100
AcDbEntity
  8
原始结构-墙体
100
AcDbLine
 10
5000.0
 20
6940.0
 30
0.0
 11
7000.0
 21
6940.0
 31
0.0
  0
LINE
  5
86
330
17
100
AcDbEntity
  8
原始结构-墙体
100
AcDbLine
 10
5000.0
 20
7060.0
 30
0.0
 11
5000.0
 21
6940.0
 31
0.0
  0
LINE
  5
87
330
17
100
AcDbEntity
  8
原始结构-墙体
100
AcDbLine
 10
7000.0
 20
7060.0
 30
0.0
 11
7000.0
 21
6940.0
 31
0.0
  0
LWPOLYLINE
  5
88
330
17
100
AcDbEntity
  8
原始结构-墙填充
100
AcDbPolyline
 90
4
 70
1
 10
5000.0
 20
7060.0
 10
7000.0
 20
7060.0
 10
7000.0
 20
6940.0
 10
5000.0
 20
6940.0
  0
LINE
  5
89
330
17
100
AcDbEntity
  8
原始结构-墙体
100
AcDbLine
 10
6940.0
 20
7000.0
 30
0.0
 11
6940.0
 21
8800.0
 31
0.0
  0
LINE
  5
8A
330
17
100
AcDbEntity
  8
原始结构-墙体
100
AcDbLine
 10
7060.0
 20
7000.0
 30
0.0
 11
7060.0
 21
8800.0
 31
0.0
  0
LINE
  5
8B
330
17
100
AcDbEntity
  8
原始结构-墙体
100
AcDbLine
 10
6940.0
 20
7000.0
 30
0.0
 11
7060.0
 21
7000.0
 31
0.0
  0
LINE
  5
8C
330
17
100
AcDbEntity
  8
原始结构-墙体
100
AcDbLine
 10
6940.0
 20
8800.0
 30
0.0
 11
7060.0
 21
8800.0
 31
0.0
  0
LWPOLYLINE
  5
8D
330
17
100
AcDbEntity
  8
原始结构-墙填充
100
AcDbPolyline
 90
4
 70
1
 10
6940.0
 20
7000.0
 10
6940.0
 20
8800.0
 10
7060.0
 20
8800.0
 10
7060.0
 20
7000.0
  0
LINE
  5
8E
330
17
100
AcDbEntity
  8
原始结构-墙体
100
AcDbLine
 10
7000.0
 20
8740.0
 30
0.0
 11
5000.0
 21
8740.0
 31
0.0
  0
LINE
  5
8F
330
17
100
AcDbEntity
  8
原始结构-墙体
100
AcDbLine
 10
7000.0
 20
8860.0
 30
0.0
 11
5000.0
 21
8860.0
 31
0.0
  0
LINE
  5
90
330
17
100
AcDbEntity
  8
原始结构-墙体
100
AcDbLine
 10
7000.0
 20
8740.0
 30
0.0
 11
7000.0
 21
8860.0
 31
0.0
  0
LINE
  5
91
330
17
100
AcDbEntity
  8
原始结构-墙体
100
AcDbLine
 10
5000.0
 20
8740.0
 30
0.0
 11
5000.0
 21
8860.0
 31
0.0
  0
LWPOLYLINE
  5
92
330
17
100
AcDbEntity
  8
原始结构-墙填充
100
AcDbPolyline
 90
4
 70
1
 10
7000.0
 20
8740.0
 10
5000.0
 20
8740.0
 10
5000.0
 20
8860.0
 10
7000.0
 20
8860.0
  0
LINE
  5
93
330
17
100
AcDbEntity
  8
原始结构-墙体
100
AcDbLine
 10
5060.0
 20
8800.0
 30
0.0
 11
5060.0
 21
7000.0
 31
0.0
  0
LINE
  5
94
330
17
100
AcDbEntity
  8
原始结构-墙体
100
AcDbLine
 10
4940.0
 20
8800.0
 30
0.0
 11
4940.0
 21
7000.0
 31
0.0
  0
LINE
  5
95
330
17
100
AcDbEntity
  8
原始结构-墙体
100
AcDbLine
 10
5060.0
 20
8800.0
 30
0.0
 11
4940.0
 21
8800.0
 31
0.0
  0
LINE
  5
96
330
17
100
AcDbEntity
  8
原始结构-墙体
100
AcDbLine
 10
5060.0
 20
7000.0
 30
0.0
 11
4940.0
 21
7000.0
 31
0.0
  0
LWPOLYLINE
  5
97
330
17
100
AcDbEntity
  8
原始结构-墙填充
100
AcDbPolyline
 90
4
 70
1
 10
5060.0
 20
8800.0
 10
5060.0
 20
7000.0
 10
4940.0
 20
7000.0
 10
4940.0
 20
8800.0
  0
LINE
  5
98
330
17
100
AcDbEntity
  8
原始结构-墙体
100
AcDbLine
 10
-60.0
 20
3000.0
 30
0.0
 11
-60.0
 21
7000.0
 31
0.0
  0
LINE
  5
99
330
17
100
AcDbEntity
  8
原始结构-墙体
100
AcDbLine
 10
60.0
 20
3000.0
 30
0.0
 11
60.0
 21
7000.0
 31
0.0
  0
LINE
  5
9A
330
17
100
AcDbEntity
  8
原始结构-墙体
100
AcDbLine
 10
-60.0
 20
3000.0
 30
0.0
 11
60.0
 21
3000.0
 31
0.0
  0
LINE
  5
9B
330
17
100
AcDbEntity
  8
原始结构-墙体
100
AcDbLine
 10
-60.0
 20
7000.0
 30
0.0
 11
60.0
 21
7000.0
 31
0.0
  0
LWPOLYLINE
  5
9C
330
17
100
AcDbEntity
  8
原始结构-墙填充
100
AcDbPolyline
 90
4
 70
1
 10
-60.0
 20
3000.0
 10
-60.0
 20
7000.0
 10
60.0
 20
7000.0
 10
60.0
 20
3000.0
  0
LINE
  5
9D
330
17
100
AcDbEntity
  8
原始结构-墙体
100
AcDbLine
 10
0.0
 20
6940.0
 30
0.0
 11
-3000.0
 21
6940.0
 31
0.0
  0
LINE
  5
9E
330
17
100
AcDbEntity
  8
原始结构-墙体
100
AcDbLine
 10
0.0
 20
7060.0
 30
0.0
 11
-3000.0
 21
7060.0
 31
0.0
  0
LINE
  5
9F
330
17
100
AcDbEntity
  8
原始结构-墙体
100
AcDbLine
 10
0.0
 20
6940.0
 30
0.0
 11
0.0
 21
7060.0
 31
0.0
  0
LINE
  5
A0
330
17
100
AcDbEntity
  8
原始结构-墙体
100
AcDbLine
 10
-3000.0
 20
6940.0
 30
0.0
 11
-3000.0
 21
7060.0
 31
0.0
  0
LWPOLYLINE
  5
A1
330
17
100
AcDbEntity
  8
原始结构-墙填充
100
AcDbPolyline
 90
4
 70
1
 10
0.0
 20
6940.0
 10
-3000.0
 20
6940.0
 10
-3000.0
 20
7060.0
 10
0.0
 20
7060.0
  0
LINE
  5
A2
330
17
100
AcDbEntity
  8
原始结构-窗
100
AcDbLine
 10
1000.0
 20
60.0
 30
0.0
 11
4000.0
 21
60.0
 31
0.0
  0
LINE
  5
A3
330
17
100
AcDbEntity
  8
原始结构-窗
100
AcDbLine
 10
1000.0
 20
-60.0
 30
0.0
 11
4000.0
 21
-60.0
 31
0.0
  0
LINE
  5
A4
330
17
100
AcDbEntity
  8
原始结构-窗
100
AcDbLine
 10
1000.0
 20
0.0
 30
0.0
 11
4000.0
 21
0.0
 31
0.0
  0
ARC
  5
A5
330
17
100
AcDbEntity
  8
原始结构-门
100
AcDbCircle
 10
-60.0
 20
4000.0
 30
0.0
 40
900.0
100
AcDbArc
 50
-90.0
 51
0.0
  0
LINE
  5
A6
330
17
100
AcDbEntity
  8
原始结构-门
100
AcDbLine
 10
-60.0
 20
4000.0
 30
0.0
 11
840.0
 21
4000.0
 31
0.0
  0
LINE
  5
A7
330
17
100
AcDbEntity
  8
原始结构-窗
100
AcDbLine
 10
2000.0
 20
2940.0
 30
0.0
 11
200.0
 21
2940.0
 31
0.0
  0
LINE
  5
A8
330
17
100
AcDbEntity
  8
原始结构-窗
100
AcDbLine
 10
2000.0
 20
3060.0
 30
0.0
 11
200.0
 21
3060.0
 31
0.0
  0
LINE
  5
A9
330
17
100
AcDbEntity
  8
原始结构-窗
100
AcDbLine
 10
2000.0
 20
3000.0
 30
0.0
 11
200.0
 21
3000.0
 31
0.0
  0
LINE
  5
AA
330
17
100
AcDbEntity
  8
原始结构-窗
100
AcDbLine
 10
800.0
 20
4060.0
 30
0.0
 11
3200.0
 21
4060.0
 31
0.0
  0
LINE
  5
AB
330
17
100
AcDbEntity
  8
原始结构-窗
100
AcDbLine
 10
800.0
 20
3940.0
 30
0.0
 11
3200.0
 21
3940.0
 31
0.0
  0
LINE
  5
AC
330
17
100
AcDbEntity
  8
原始结构-窗
100
AcDbLine
 10
800.0
 20
4000.0
 30
0.0
 11
3200.0
 21
4000.0
 31
0.0
  0
ARC
  5
AD
330
17
100
AcDbEntity
  8
原始结构-门
100
AcDbCircle
 10
-60.0
 20
7500.0
 30
0.0
 40
900.0
100
AcDbArc
 50
-90.0
 51
0.0
  0
LINE
  5
AE
330
17
100
AcDbEntity
  8
原始结构-门
100
AcDbLine
 10
-60.0
 20
7500.0
 30
0.0
 11
840.0
 21
7500.0
 31
0.0
  0
LINE
  5
AF
330
17
100
AcDbEntity
  8
原始结构-窗
100
AcDbLine
 10
750.0
 20
4060.0
 30
0.0
 11
2550.0
 21
4060.0
 31
0.0
  0
LINE
  5
B0
330
17
100
AcDbEntity
  8
原始结构-窗
100
AcDbLine
 10
750.0
 20
3940.0
 30
0.0
 11
2550.0
 21
3940.0
 31
0.0
  0
LINE
  5
B1
330
17
100
AcDbEntity
  8
原始结构-窗
100
AcDbLine
 10
750.0
 20
4000.0
 30
0.0
 11
2550.0
 21
4000.0
 31
0.0
  0
ARC
  5
B2
330
17
100
AcDbEntity
  8
原始结构-门
100
AcDbCircle
 10
4940.0
 20
7000.0
 30
0.0
 40
900.0
100
AcDbArc
 50
-90.0
 51
0.0
  0
LINE
  5
B3
330
17
100
AcDbEntity
  8
原始结构-门
100
AcDbLine
 10
4940.0
 20
7000.0
 30
0.0
 11
5840.0
 21
7000.0
 31
0.0
  0
ARC
  5
B4
330
17
100
AcDbEntity
  8
原始结构-门
100
AcDbCircle
 10
5600.0
 20
6940.0
 30
0.0
 40
800.0
100
AcDbArc
 50
-0.0
 51
90.0
  0
LINE
  5
B5
330
17
100
AcDbEntity
  8
原始结构-门
100
AcDbLine
 10
5600.0
 20
6940.0
 30
0.0
 11
5600.0
 21
7740.0
 31
0.0
  0
LINE
  5
B6
330
17
100
AcDbEntity
  8
原始结构-窗
100
AcDbLine
 10
6940.0
 20
7000.0
 30
0.0
 11
6940.0
 21
7800.0
 31
0.0
  0
LINE
  5
B7
330
17
100
AcDbEntity
  8
原始结构-窗
100
AcDbLine
 10
7060.0
 20
7000.0
 30
0.0
 11
7060.0
 21
7800.0
 31
0.0
  0
LINE
  5
B8
330
17
100
AcDbEntity
  8
原始结构-窗
100
AcDbLine
 10
7000.0
 20
7000.0
 30
0.0
 11
7000.0
 21
7800.0
 31
0.0
  0
LWPOLYLINE
  5
B9
330
17
100
AcDbEntity
  8
原始结构-梁
100
AcDbPolyline
 90
4
 70
1
 10
1350.0
 20
1300.0
 10
1650.0
 20
1300.0
 10
1650.0
 20
1700.0
 10
1350.0
 20
1700.0
  0
LWPOLYLINE
  5
BA
330
17
100
AcDbEntity
  8
原始结构-梁
100
AcDbPolyline
 90
4
 70
1
 10
4850.0
 20
1800.0
 10
5150.0
 20
1800.0
 10
5150.0
 20
2200.0
 10
4850.0
 20
2200.0
  0
CIRCLE
  5
BB
330
17
100
AcDbEntity
  8
原始结构-柱
100
AcDbCircle
 10
2500.0
 20
2000.0
 30
0.0
 40
200.0
  0
LINE
  5
BC
330
17
100
AcDbEntity
  8
原始结构-尺寸标注
100
AcDbLine
 10
0.0
 20
0.0
 30
0.0
 11
0.0
 21
500.0
 31
0.0
  0
LINE
  5
BD
330
17
100
AcDbEntity
  8
原始结构-尺寸标注
100
AcDbLine
 10
5000.0
 20
0.0
 30
0.0
 11
5000.0
 21
500.0
 31
0.0
  0
LINE
  5
BE
330
17
100
AcDbEntity
  8
原始结构-尺寸标注
100
AcDbLine
 10
0.0
 20
500.0
 30
0.0
 11
5000.0
 21
500.0
 31
0.0
  0
LINE
  5
BF
330
17
100
AcDbEntity
  8
原始结构-尺寸标注
100
AcDbLine
 10
-100.0
 20
500.0
 30
0.0
 11
100.0
 21
500.0
 31
0.0
  0
LINE
  5
C0
330
17
100
AcDbEntity
  8
原始结构-尺寸标注
100
AcDbLine
 10
4900.0
 20
500.0
 30
0.0
 11
5100.0
 21
500.0
 31
0.0
  0
TEXT
  5
C1
330
17
100
AcDbEntity
  8
原始结构-尺寸标注
100
AcDbText
 10
2500.0
 20
560.0
 30
0.0
 40
180.0
  1
5000
 72
1
 11
2500.0
 21
560.0
 31
0.0
100
AcDbText
  0
LINE
  5
C2
330
17
100
AcDbEntity
  8
原始结构-尺寸标注
100
AcDbLine
 10
5000.0
 20
0.0
 30
0.0
 11
4500.0
 21
0.0
 31
0.0
  0
LINE
  5
C3
330
17
100
AcDbEntity
  8
原始结构-尺寸标注
100
AcDbLine
 10
5000.0
 20
4000.0
 30
0.0
 11
4500.0
 21
4000.0
 31
0.0
  0
LINE
  5
C4
330
17
100
AcDbEntity
  8
原始结构-尺寸标注
100
AcDbLine
 10
4500.0
 20
0.0
 30
0.0
 11
4500.0
 21
4000.0
 31
0.0
  0
LINE
  5
C5
330
17
100
AcDbEntity
  8
原始结构-尺寸标注
100
AcDbLine
 10
4500.0
 20
-100.0
 30
0.0
 11
4500.0
 21
100.0
 31
0.0
  0
LINE
  5
C6
330
17
100
AcDbEntity
  8
原始结构-尺寸标注
100
AcDbLine
 10
4500.0
 20
3900.0
 30
0.0
 11
4500.0
 21
4100.0
 31
0.0
  0
TEXT
  5
C7
330
17
100
AcDbEntity
  8
原始结构-尺寸标注
100
AcDbText
 10
4500.0
 20
2060.0
 30
0.0
 40
180.0
  1
4000
 72
1
 11
4500.0
 21
2060.0
 31
0.0
100
AcDbText
  0
LINE
  5
C8
330
17
100
AcDbEntity
  8
原始结构-尺寸标注
100
AcDbLine
 10
5000.0
 20
4000.0
 30
0.0
 11
5000.0
 21
3500.0
 31
0.0
  0
LINE
  5
C9
330
17
100
AcDbEntity
  8
原始结构-尺寸标注
100
AcDbLine
 10
0.0
 20
4000.0
 30
0.0
 11
0.0
 21
3500.0
 31
0.0
  0
LINE
  5
CA
330
17
100
AcDbEntity
  8
原始结构-尺寸标注
100
AcDbLine
 10
5000.0
 20
3500.0
 30
0.0
 11
0.0
 21
3500.0
 31
0.0
  0
LINE
  5
CB
330
17
100
AcDbEntity
  8
原始结构-尺寸标注
100
AcDbLine
 10
5100.0
 20
3500.0
 30
0.0
 11
4900.0
 21
3500.0
 31
0.0
  0
LINE
  5
CC
330
17
100
AcDbEntity
  8
原始结构-尺寸标注
100
AcDbLine
 10
100.0
 20
3500.0
 30
0.0
 11
-100.0
 21
3500.0
 31
0.0
  0
TEXT
  5
CD
330
17
100
AcDbEntity
  8
原始结构-尺寸标注
100
AcDbText
 10
2500.0
 20
3560.0
 30
0.0
 40
180.0
  1
5000
 72
1
 11
2500.0
 21
3560.0
 31
0.0
100
AcDbText
  0
LINE
  5
CE
330
17
100
AcDbEntity
  8
原始结构-尺寸标注
100
AcDbLine
 10
0.0
 20
4000.0
 30
0.0
 11
500.0
 21
4000.0
 31
0.0
  0
LINE
  5
CF
330
17
100
AcDbEntity
  8
原始结构-尺寸标注
100
AcDbLine
 10
0.0
 20
0.0
 30
0.0
 11
500.0
 21
0.0
 31
0.0
  0
LINE
  5
D0
330
17
100
AcDbEntity
  8
原始结构-尺寸标注
100
AcDbLine
 10
500.0
 20
4000.0
 30
0.0
 11
500.0
 21
0.0
 31
0.0
  0
LINE
  5
D1
330
17
100
AcDbEntity
  8
原始结构-尺寸标注
100
AcDbLine
 10
500.0
 20
4100.0
 30
0.0
 11
500.0
 21
3900.0
 31
0.0
  0
LINE
  5
D2
330
17
100
AcDbEntity
  8
原始结构-尺寸标注
100
AcDbLine
 10
500.0
 20
100.0
 30
0.0
 11
500.0
 21
-100.0
 31
0.0
  0
TEXT
  5
D3
330
17
100
AcDbEntity
  8
原始结构-尺寸标注
100
AcDbText
 10
500.0
 20
2060.0
 30
0.0
 40
180.0
  1
4000
 72
1
 11
500.0
 21
2060.0
 31
0.0
100
AcDbText
  0
LINE
  5
D4
330
17
100
AcDbEntity
  8
原始结构-尺寸标注
100
AcDbLine
 10
4400.0
 20
0.0
 30
0.0
 11
3900.0
 21
0.0
 31
0.0
  0
LINE
  5
D5
330
17
100
AcDbEntity
  8
原始结构-尺寸标注
100
AcDbLine
 10
4400.0
 20
3000.0
 30
0.0
 11
3900.0
 21
3000.0
 31
0.0
  0
LINE
  5
D6
330
17
100
AcDbEntity
  8
原始结构-尺寸标注
100
AcDbLine
 10
3900.0
 20
0.0
 30
0.0
 11
3900.0
 21
3000.0
 31
0.0
  0
LINE
  5
D7
330
17
100
AcDbEntity
  8
原始结构-尺寸标注
100
AcDbLine
 10
3900.0
 20
-100.0
 30
0.0
 11
3900.0
 21
100.0
 31
0.0
  0
LINE
  5
D8
330
17
100
AcDbEntity
  8
原始结构-尺寸标注
100
AcDbLine
 10
3900.0
 20
2900.0
 30
0.0
 11
3900.0
 21
3100.0
 31
0.0
  0
TEXT
  5
D9
330
17
100
AcDbEntity
  8
原始结构-尺寸标注
100
AcDbText
 10
3900.0
 20
1560.0
 30
0.0
 40
180.0
  1
3000
 72
1
 11
3900.0
 21
1560.0
 31
0.0
100
AcDbText
  0
LINE
  5
DA
330
17
100
AcDbEntity
  8
原始结构-尺寸标注
100
AcDbLine
 10
4400.0
 20
3000.0
 30
0.0
 11
4400.0
 21
2500.0
 31
0.0
  0
LINE
  5
DB
330
17
100
AcDbEntity
  8
原始结构-尺寸标注
100
AcDbLine
 10
1900.0
 20
3000.0
 30
0.0
 11
1900.0
 21
2500.0
 31
0.0
  0
LINE
  5
DC
330
17
100
AcDbEntity
  8
原始结构-尺寸标注
100
AcDbLine
 10
4400.0
 20
2500.0
 30
0.0
 11
1900.0
 21
2500.0
 31
0.0
  0
LINE
  5
DD
330
17
100
AcDbEntity
  8
原始结构-尺寸标注
100
AcDbLine
 10
4500.0
 20
2500.0
 30
0.0
 11
4300.0
 21
2500.0
 31
0.0
  0
LINE
  5
DE
330
17
100
AcDbEntity
  8
原始结构-尺寸标注
100
AcDbLine
 10
2000.0
 20
2500.0
 30
0.0
 11
1800.0
 21
2500.0
 31
0.0
  0
TEXT
  5
DF
330
17
100
AcDbEntity
  8
原始结构-尺寸标注
100
AcDbText
 10
3150.0
 20
2560.0
 30
0.0
 40
180.0
  1
2500
 72
1
 11
3150.0
 21
2560.0
 31
0.0
100
AcDbText
  0
LINE
  5
E0
330
17
100
AcDbEntity
  8
原始结构-尺寸标注
100
AcDbLine
 10
1400.0
 20
3000.0
 30
0.0
 11
1900.0
 21
3000.0
 31
0.0
  0
LINE
  5
E1
330
17
100
AcDbEntity
  8
原始结构-尺寸标注
100
AcDbLine
 10
1400.0
 20
0.0
 30
0.0
 11
1900.0
 21
0.0
 31
0.0
  0
LINE
  5
E2
330
17
100
AcDbEntity
  8
原始结构-尺寸标注
100
AcDbLine
 10
1900.0
 20
3000.0
 30
0.0
 11
1900.0
 21
0.0
 31
0.0
  0
LINE
  5
E3
330
17
100
AcDbEntity
  8
原始结构-尺寸标注
100
AcDbLine
 10
1900.0
 20
3100.0
 30
0.0
 11
1900.0
 21
2900.0
 31
0.0
  0
LINE
  5
E4
330
17
100
AcDbEntity
  8
原始结构-尺寸标注
100
AcDbLine
 10
1900.0
 20
100.0
 30
0.0
 11
1900.0
 21
-100.0
 31
0.0
  0
TEXT
  5
E5
330
17
100
AcDbEntity
  8
原始结构-尺寸标注
100
AcDbText
 10
1900.0
 20
1560.0
 30
0.0
 40
180.0
  1
3000
 72
1
 11
1900.0
 21
1560.0
 31
0.0
100
AcDbText
  0
LINE
  5
E6
330
17
100
AcDbEntity
  8
原始结构-尺寸标注
100
AcDbLine
 10
0.0
 20
4000.0
 30
0.0
 11
0.0
 21
4500.0
 31
0.0
  0
LINE
  5
E7
330
17
100
AcDbEntity
  8
原始结构-尺寸标注
100
AcDbLine
 10
4000.0
 20
4000.0
 30
0.0
 11
4000.0
 21
4500.0
 31
0.0
  0
LINE
  5
E8
330
17
100
AcDbEntity
  8
原始结构-尺寸标注
100
AcDbLine
 10
0.0
 20
4500.0
 30
0.0
 11
4000.0
 21
4500.0
 31
0.0
  0
LINE
  5
E9
330
17
100
AcDbEntity
  8
原始结构-尺寸标注
100
AcDbLine
 10
-100.0
 20
4500.0
 30
0.0
 11
100.0
 21
4500.0
 31
0.0
  0
LINE
  5
EA
330
17
100
AcDbEntity
  8
原始结构-尺寸标注
100
AcDbLine
 10
3900.0
 20
4500.0
 30
0.0
 11
4100.0
 21
4500.0
 31
0.0
  0
TEXT
  5
EB
330
17
100
AcDbEntity
  8
原始结构-尺寸标注
100
AcDbText
 10
2000.0
 20
4560.0
 30
0.0
 40
180.0
  1
4000
 72
1
 11
2000.0
 21
4560.0
 31
0.0
100
AcDbText
  0
LINE
  5
EC
330
17
100
AcDbEntity
  8
原始结构-尺寸标注
100
AcDbLine
 10
4000.0
 20
4000.0
 30
0.0
 11
3500.0
 21
4000.0
 31
0.0
  0
LINE
  5
ED
330
17
100
AcDbEntity
  8
原始结构-尺寸标注
100
AcDbLine
 10
4000.0
 20
7500.0
 30
0.0
 11
3500.0
 21
7500.0
 31
0.0
  0
LINE
  5
EE
330
17
100
AcDbEntity
  8
原始结构-尺寸标注
100
AcDbLine
 10
3500.0
 20
4000.0
 30
0.0
 11
3500.0
 21
7500.0
 31
0.0
  0
LINE
  5
EF
330
17
100
AcDbEntity
  8
原始结构-尺寸标注
100
AcDbLine
 10
3500.0
 20
3900.0
 30
0.0
 11
3500.0
 21
4100.0
 31
0.0
  0
LINE
  5
F0
330
17
100
AcDbEntity
  8
原始结构-尺寸标注
100
AcDbLine
 10
3500.0
 20
7400.0
 30
0.0
 11
3500.0
 21
7600.0
 31
0.0
  0
TEXT
  5
F1
330
17
100
AcDbEntity
  8
原始结构-尺寸标注
100
AcDbText
 10
3500.0
 20
5810.0
 30
0.0
 40
180.0
  1
3500
 72
1
 11
3500.0
 21
5810.0
 31
0.0
100
AcDbText
  0
LINE
  5
F2
330
17
100
AcDbEntity
  8
原始结构-尺寸标注
100
AcDbLine
 10
4000.0
 20
7500.0
 30
0.0
 11
4000.0
 21
7000.0
 31
0.0
  0
LINE
  5
F3
330
17
100
AcDbEntity
  8
原始结构-尺寸标注
100
AcDbLine
 10
0.0
 20
7500.0
 30
0.0
 11
0.0
 21
7000.0
 31
0.0
  0
LINE
  5
F4
330
17
100
AcDbEntity
  8
原始结构-尺寸标注
100
AcDbLine
 10
4000.0
 20
7000.0
 30
0.0
 11
0.0
 21
7000.0
 31
0.0
  0
LINE
  5
F5
330
17
100
AcDbEntity
  8
原始结构-尺寸标注
100
AcDbLine
 10
4100.0
 20
7000.0
 30
0.0
 11
3900.0
 21
7000.0
 31
0.0
  0
LINE
  5
F6
330
17
100
AcDbEntity
  8
原始结构-尺寸标注
100
AcDbLine
 10
100.0
 20
7000.0
 30
0.0
 11
-100.0
 21
7000.0
 31
0.0
  0
TEXT
  5
F7
330
17
100
AcDbEntity
  8
原始结构-尺寸标注
100
AcDbText
 10
2000.0
 20
7060.0
 30
0.0
 40
180.0
  1
4000
 72
1
 11
2000.0
 21
7060.0
 31
0.0
100
AcDbText
  0
LINE
  5
F8
330
17
100
AcDbEntity
  8
原始结构-尺寸标注
100
AcDbLine
 10
0.0
 20
7500.0
 30
0.0
 11
500.0
 21
7500.0
 31
0.0
  0
LINE
  5
F9
330
17
100
AcDbEntity
  8
原始结构-尺寸标注
100
AcDbLine
 10
0.0
 20
4000.0
 30
0.0
 11
500.0
 21
4000.0
 31
0.0
  0
LINE
  5
FA
330
17
100
AcDbEntity
  8
原始结构-尺寸标注
100
AcDbLine
 10
500.0
 20
7500.0
 30
0.0
 11
500.0
 21
4000.0
 31
0.0
  0
LINE
  5
FB
330
17
100
AcDbEntity
  8
原始结构-尺寸标注
100
AcDbLine
 10
500.0
 20
7600.0
 30
0.0
 11
500.0
 21
7400.0
 31
0.0
  0
LINE
  5
FC
330
17
100
AcDbEntity
  8
原始结构-尺寸标注
100
AcDbLine
 10
500.0
 20
4100.0
 30
0.0
 11
500.0
 21
3900.0
 31
0.0
  0
TEXT
  5
FD
330
17
100
AcDbEntity
  8
原始结构-尺寸标注
100
AcDbText
 10
500.0
 20
5810.0
 30
0.0
 40
180.0
  1
3500
 72
1
 11
500.0
 21
5810.0
 31
0.0
100
AcDbText
  0
LINE
  5
FE
330
17
100
AcDbEntity
  8
原始结构-尺寸标注
100
AcDbLine
 10
5000.0
 20
4000.0
 30
0.0
 11
5000.0
 21
4500.0
 31
0.0
  0
LINE
  5
FF
330
17
100
AcDbEntity
  8
原始结构-尺寸标注
100
AcDbLine
 10
8300.0
 20
4000.0
 30
0.0
 11
8300.0
 21
4500.0
 31
0.0
  0
LINE
  5
100
330
17
100
AcDbEntity
  8
原始结构-尺寸标注
100
AcDbLine
 10
5000.0
 20
4500.0
 30
0.0
 11
8300.0
 21
4500.0
 31
0.0
  0
LINE
  5
101
330
17
100
AcDbEntity
  8
原始结构-尺寸标注
100
AcDbLine
 10
4900.0
 20
4500.0
 30
0.0
 11
5100.0
 21
4500.0
 31
0.0
  0
LINE
  5
102
330
17
100
AcDbEntity
  8
原始结构-尺寸标注
100
AcDbLine
 10
8200.0
 20
4500.0
 30
0.0
 11
8400.0
 21
4500.0
 31
0.0
  0
TEXT
  5
103
330
17
100
AcDbEntity
  8
原始结构-尺寸标注
100
AcDbText
 10
6650.0
 20
4560.0
 30
0.0
 40
180.0
  1
3300
 72
1
 11
6650.0
 21
4560.0
 31
0.0
100
AcDbText
  0
LINE
  5
104
330
17
100
AcDbEntity
  8
原始结构-尺寸标注
100
AcDbLine
 10
8300.0
 20
4000.0
 30
0.0
 11
7800.0
 21
4000.0
 31
0.0
  0
LINE
  5
105
330
17
100
AcDbEntity
  8
原始结构-尺寸标注
100
AcDbLine
 10
8300.0
 20
7000.0
 30
0.0
 11
7800.0
 21
7000.0
 31
0.0
  0
LINE
  5
106
330
17
100
AcDbEntity
  8
原始结构-尺寸标注
100
AcDbLine
 10
7800.0
 20
4000.0
 30
0.0
 11
7800.0
 21
7000.0
 31
0.0
  0
LINE
  5
107
330
17
100
AcDbEntity
  8
原始结构-尺寸标注
100
AcDbLine
 10
7800.0
 20
3900.0
 30
0.0
 11
7800.0
 21
4100.0
 31
0.0
  0
LINE
  5
108
330
17
100
AcDbEntity
  8
原始结构-尺寸标注
100
AcDbLine
 10
7800.0
 20
6900.0
 30
0.0
 11
7800.0
 21
7100.0
 31
0.0
  0
TEXT
  5
109
330
17
100
AcDbEntity
  8
原始结构-尺寸标注
100
AcDbText
 10
7800.0
 20
5560.0
 30
0.0
 40
180.0
  1
3000
 72
1
 11
7800.0
 21
5560.0
 31
0.0
100
AcDbText
  0
LINE
  5
10A
330
17
100
AcDbEntity
  8
原始结构-尺寸标注
100
AcDbLine
 10
8300.0
 20
7000.0
 30
0.0
 11
8300.0
 21
6500.0
 31
0.0
  0
LINE
  5
10B
330
17
100
AcDbEntity
  8
原始结构-尺寸标注
100
AcDbLine
 10
5000.0
 20
7000.0
 30
0.0
 11
5000.0
 21
6500.0
 31
0.0
  0
LINE
  5
10C
330
17
100
AcDbEntity
  8
原始结构-尺寸标注
100
AcDbLine
 10
8300.0
 20
6500.0
 30
0.0
 11
5000.0
 21
6500.0
 31
0.0
  0
LINE
  5
10D
330
17
100
AcDbEntity
  8
原始结构-尺寸标注
100
AcDbLine
 10
8400.0
 20
6500.0
 30
0.0
 11
8200.0
 21
6500.0
 31
0.0
  0
LINE
  5
10E
330
17
100
AcDbEntity
  8
原始结构-尺寸标注
100
AcDbLine
 10
5100.0
 20
6500.0
 30
0.0
 11
4900.0
 21
6500.0
 31
0.0
  0
TEXT
  5
10F
330
17
100
AcDbEntity
  8
原始结构-尺寸标注
100
AcDbText
 10
6650.0
 20
6560.0
 30
0.0
 40
180.0
  1
3300
 72
1
 11
6650.0
 21
6560.0
 31
0.0
100
AcDbText
  0
LINE
  5
110
330
17
100
AcDbEntity
  8
原始结构-尺寸标注
100
AcDbLine
 10
5000.0
 20
7000.0
 30
0.0
 11
5500.0
 21
7000.0
 31
0.0
  0
LINE
  5
111
330
17
100
AcDbEntity
  8
原始结构-尺寸标注
100
AcDbLine
 10
5000.0
 20
4000.0
 30
0.0
 11
5500.0
 21
4000.0
 31
0.0
  0
LINE
  5
112
330
17
100
AcDbEntity
  8
原始结构-尺寸标注
100
AcDbLine
 10
5500.0
 20
7000.0
 30
0.0
 11
5500.0
 21
4000.0
 31
0.0
  0
LINE
  5
113
330
17
100
AcDbEntity
  8
原始结构-尺寸标注
100
AcDbLine
 10
5500.0
 20
7100.0
 30
0.0
 11
5500.0
 21
6900.0
 31
0.0
  0
LINE
  5
114
330
17
100
AcDbEntity
  8
原始结构-尺寸标注
100
AcDbLine
 10
5500.0
 20
4100.0
 30
0.0
 11
5500.0
 21
3900.0
 31
0.0
  0
TEXT
  5
115
330
17
100
AcDbEntity
  8
原始结构-尺寸标注
100
AcDbText
 10
5500.0
 20
5560.0
 30
0.0
 40
180.0
  1
3000
 72
1
 11
5500.0
 21
5560.0
 31
0.0
100
AcDbText
  0
LINE
  5
116
330
17
100
AcDbEntity
  8
原始结构-尺寸标注
100
AcDbLine
 10
5000.0
 20
7000.0
 30
0.0
 11
5000.0
 21
7500.0
 31
0.0
  0
LINE
  5
117
330
17
100
AcDbEntity
  8
原始结构-尺寸标注
100
AcDbLine
 10
7000.0
 20
7000.0
 30
0.0
 11
7000.0
 21
7500.0
 31
0.0
  0
LINE
  5
118
330
17
100
AcDbEntity
  8
原始结构-尺寸标注
100
AcDbLine
 10
5000.0
 20
7500.0
 30
0.0
 11
7000.0
 21
7500.0
 31
0.0
  0
LINE
  5
119
330
17
100
AcDbEntity
  8
原始结构-尺寸标注
100
AcDbLine
 10
4900.0
 20
7500.0
 30
0.0
 11
5100.0
 21
7500.0
 31
0.0
  0
LINE
  5
11A
330
17
100
AcDbEntity
  8
原始结构-尺寸标注
100
AcDbLine
 10
6900.0
 20
7500.0
 30
0.0
 11
7100.0
 21
7500.0
 31
0.0
  0
TEXT
  5
11B
330
17
100
AcDbEntity
  8
原始结构-尺寸标注
100
AcDbText
 10
6000.0
 20
7560.0
 30
0.0
 40
180.0
  1
2000
 72
1
 11
6000.0
 21
7560.0
 31
0.0
100
AcDbText
  0
LINE
  5
11C
330
17
100
AcDbEntity
  8
原始结构-尺寸标注
100
AcDbLine
 10
7000.0
 20
7000.0
 30
0.0
 11
6500.0
 21
7000.0
 31
0.0
  0
LINE
  5
11D
330
17
100
AcDbEntity
  8
原始结构-尺寸标注
100
AcDbLine
 10
7000.0
 20
8800.0
 30
0.0
 11
6500.0
 21
8800.0
 31
0.0
  0
LINE
  5
11E
330
17
100
AcDbEntity
  8
原始结构-尺寸标注
100
AcDbLine
 10
6500.0
 20
7000.0
 30
0.0
 11
6500.0
 21
8800.0
 31
0.0
  0
LINE
  5
11F
330
17
100
AcDbEntity
  8
原始结构-尺寸标注
100
AcDbLine
 10
6500.0
 20
6900.0
 30
0.0
 11
6500.0
 21
7100.0
 31
0.0
  0
LINE
  5
120
330
17
100
AcDbEntity
  8
原始结构-尺寸标注
100
AcDbLine
 10
6500.0
 20
8700.0
 30
0.0
 11
6500.0
 21
8900.0
 31
0.0
  0
TEXT
  5
121
330
17
100
AcDbEntity
  8
原始结构-尺寸标注
100
AcDbText
 10
6500.0
 20
7960.0
 30
0.0
 40
180.0
  1
1800
 72
1
 11
6500.0
 21
7960.0
 31
0.0
100
AcDbText
  0
LINE
  5
122
330
17
100
AcDbEntity
  8
原始结构-尺寸标注
100
AcDbLine
 10
7000.0
 20
8800.0
 30
0.0
 11
7000.0
 21
8300.0
 31
0.0
  0
LINE
  5
123
330
17
100
AcDbEntity
  8
原始结构-尺寸标注
100
AcDbLine
 10
5000.0
 20
8800.0
 30
0.0
 11
5000.0
 21
8300.0
 31
0.0
  0
LINE
  5
124
330
17
100
AcDbEntity
  8
原始结构-尺寸标注
100
AcDbLine
 10
7000.0
 20
8300.0
 30
0.0
 11
5000.0
 21
8300.0
 31
0.0
  0
LINE
  5
125
330
17
100
AcDbEntity
  8
原始结构-尺寸标注
100
AcDbLine
 10
7100.0
 20
8300.0
 30
0.0
 11
6900.0
 21
8300.0
 31
0.0
  0
LINE
  5
126
330
17
100
AcDbEntity
  8
原始结构-尺寸标注
100
AcDbLine
 10
5100.0
 20
8300.0
 30
0.0
 11
4900.0
 21
8300.0
 31
0.0
  0
TEXT
  5
127
330
17
100
AcDbEntity
  8
原始结构-尺寸标注
100
AcDbText
 10
6000.0
 20
8360.0
 30
0.0
 40
180.0
  1
2000
 72
1
 11
6000.0
 21
8360.0
 31
0.0
100
AcDbText
  0
LINE
  5
128
330
17
100
AcDbEntity
  8
原始结构-尺寸标注
100
AcDbLine
 10
5000.0
 20
8800.0
 30
0.0
 11
5500.0
 21
8800.0
 31
0.0
  0
LINE
  5
129
330
17
100
AcDbEntity
  8
原始结构-尺寸标注
100
AcDbLine
 10
5000.0
 20
7000.0
 30
0.0
 11
5500.0
 21
7000.0
 31
0.0
  0
LINE
  5
12A
330
17
100
AcDbEntity
  8
原始结构-尺寸标注
100
AcDbLine
 10
5500.0
 20
8800.0
 30
0.0
 11
5500.0
 21
7000.0
 31
0.0
  0
LINE
  5
12B
330
17
100
AcDbEntity
  8
原始结构-尺寸标注
100
AcDbLine
 10
5500.0
 20
8900.0
 30
0.0
 11
5500.0
 21
8700.0
 31
0.0
  0
LINE
  5
12C
330
17
100
AcDbEntity
  8
原始结构-尺寸标注
100
AcDbLine
 10
5500.0
 20
7100.0
 30
0.0
 11
5500.0
 21
6900.0
 31
0.0
  0
TEXT
  5
12D
330
17
100
AcDbEntity
  8
原始结构-尺寸标注
100
AcDbText
 10
5500.0
 20
7960.0
 30
0.0
 40
180.0
  1
1800
 72
1
 11
5500.0
 21
7960.0
 31
0.0
100
AcDbText
  0
LINE
  5
12E
330
17
100
AcDbEntity
  8
原始结构-尺寸标注
100
AcDbLine
 10
0.0
 20
3000.0
 30
0.0
 11
-500.0
 21
3000.0
 31
0.0
  0
LINE
  5
12F
330
17
100
AcDbEntity
  8
原始结构-尺寸标注
100
AcDbLine
 10
0.0
 20
7000.0
 30
0.0
 11
-500.0
 21
7000.0
 31
0.0
  0
LINE
  5
130
330
17
100
AcDbEntity
  8
原始结构-尺寸标注
100
AcDbLine
 10
-500.0
 20
3000.0
 30
0.0
 11
-500.0
 21
7000.0
 31
0.0
  0
LINE
  5
131
330
17
100
AcDbEntity
  8
原始结构-尺寸标注
100
AcDbLine
 10
-500.0
 20
2900.0
 30
0.0
 11
-500.0
 21
3100.0
 31
0.0
  0
LINE
  5
132
330
17
100
AcDbEntity
  8
原始结构-尺寸标注
100
AcDbLine
 10
-500.0
 20
6900.0
 30
0.0
 11
-500.0
 21
7100.0
 31
0.0
  0
TEXT
  5
133
330
17
100
AcDbEntity
  8
原始结构-尺寸标注
100
AcDbText
 10
-500.0
 20
5060.0
 30
0.0
 40
180.0
  1
4000
 72
1
 11
-500.0
 21
5060.0
 31
0.0
100
AcDbText
  0
LINE
  5
134
330
17
100
AcDbEntity
  8
原始结构-尺寸标注
100
AcDbLine
 10
0.0
 20
7000.0
 30
0.0
 11
0.0
 21
6500.0
 31
0.0
  0
LINE
  5
135
330
17
100
AcDbEntity
  8
原始结构-尺寸标注
100
AcDbLine
 10
-3000.0
 20
7000.0
 30
0.0
 11
-3000.0
 21
6500.0
 31
0.0
  0
LINE
  5
136
330
17
100
AcDbEntity
  8
原始结构-尺寸标注
100
AcDbLine
 10
0.0
 20
6500.0
 30
0.0
 11
-3000.0
 21
6500.0
 31
0.0
  0
LINE
  5
137
330
17
100
AcDbEntity
  8
原始结构-尺寸标注
100
AcDbLine
 10
100.0
 20
6500.0
 30
0.0
 11
-100.0
 21
6500.0
 31
0.0
  0
LINE
  5
138
330
17
100
AcDbEntity
  8
原始结构-尺寸标注
100
AcDbLine
 10
-2900.0
 20
6500.0
 30
0.0
 11
-3100.0
 21
6500.0
 31
0.0
  0
TEXT
  5
139
330
17
100
AcDbEntity
  8
原始结构-尺寸标注
100
AcDbText
 10
-1500.0
 20
6560.0
 30
0.0
 40
180.0
  1
3000
 72
1
 11
-1500.0
 21
6560.0
 31
0.0
100
AcDbText
  0
CIRCLE
  5
13A
330
17
100
AcDbEntity
  8
原始结构-房间标号
100
AcDbCircle
 10
2500.0
 20
2000.0
 30
0.0
 40
400.0
  0
TEXT
  5
13B
330
17
100
AcDbEntity
  8
原始结构-房间标号
100
AcDbText
 10
2500.0
 20
1850.0
 30
0.0
 40
300.0
  1
1
 72
1
 11
2500.0
 21
1850.0
 31
0.0
100
AcDbText
  0
TEXT
  5
13C
330
17
100
AcDbEntity
  8
原始结构-房间标号
100
AcDbText
 10
3100.0
 20
2000.0
 30
0.0
 40
200.0
  1
客厅 (5000×4000)
 11
3100.0
 21
2000.0
 31
0.0
100
AcDbText
  0
CIRCLE
  5
13D
330
17
100
AcDbEntity
  8
原始结构-房间标号
100
AcDbCircle
 10
2983.3333333333335
 20
2000.0
 30
0.0
 40
400.0
  0
TEXT
  5
13E
330
17
100
AcDbEntity
  8
原始结构-房间标号
100
AcDbText
 10
2983.3333333333335
 20
1850.0
 30
0.0
 40
300.0
  1
2
 72
1
 11
2983.3333333333335
 21
1850.0
 31
0.0
100
AcDbText
  0
TEXT
  5
13F
330
17
100
AcDbEntity
  8
原始结构-房间标号
100
AcDbText
 10
3583.3333333333335
 20
2000.0
 30
0.0
 40
200.0
  1
厨房 (3000×2500)
 11
3583.3333333333335
 21
2000.0
 31
0.0
100
AcDbText
  0
CIRCLE
  5
140
330
17
100
AcDbEntity
  8
原始结构-房间标号
100
AcDbCircle
 10
2000.0
 20
5750.0
 30
0.0
 40
400.0
  0
TEXT
  5
141
330
17
100
AcDbEntity
  8
原始结构-房间标号
100
AcDbText
 10
2000.0
 20
5600.0
 30
0.0
 40
300.0
  1
3
 72
1
 11
2000.0
 21
5600.0
 31
0.0
100
AcDbText
  0
TEXT
  5
142
330
17
100
AcDbEntity
  8
原始结构-房间标号
100
AcDbText
 10
2600.0
 20
5750.0
 30
0.0
 40
200.0
  1
主卧 (4000×3500)
 11
2600.0
 21
5750.0
 31
0.0
100
AcDbText
  0
CIRCLE
  5
143
330
17
100
AcDbEntity
  8
原始结构-房间标号
100
AcDbCircle
 10
6650.0
 20
5500.0
 30
0.0
 40
400.0
  0
TEXT
  5
144
330
17
100
AcDbEntity
  8
原始结构-房间标号
100
AcDbText
 10
6650.0
 20
5350.0
 30
0.0
 40
300.0
  1
4
 72
1
 11
6650.0
 21
5350.0
 31
0.0
100
AcDbText
  0
TEXT
  5
145
330
17
100
AcDbEntity
  8
原始结构-房间标号
100
AcDbText
 10
7250.0
 20
5500.0
 30
0.0
 40
200.0
  1
次卧 (3300×3000)
 11
7250.0
 21
5500.0
 31
0.0
100
AcDbText
  0
CIRCLE
  5
146
330
17
100
AcDbEntity
  8
原始结构-房间标号
100
AcDbCircle
 10
6000.0
 20
7900.0
 30
0.0
 40
400.0
  0
TEXT
  5
147
330
17
100
AcDbEntity
  8
原始结构-房间标号
100
AcDbText
 10
6000.0
 20
7750.0
 30
0.0
 40
300.0
  1
5
 72
1
 11
6000.0
 21
7750.0
 31
0.0
100
AcDbText
  0
TEXT
  5
148
330
17
100
AcDbEntity
  8
原始结构-房间标号
100
AcDbText
 10
6600.0
 20
7900.0
 30
0.0
 40
200.0
  1
卫生间 (2000×1800)
 11
6600.0
 21
7900.0
 31
0.0
100
AcDbText
  0
CIRCLE
  5
149
330
17
100
AcDbEntity
  8
原始结构-房间标号
100
AcDbCircle
 10
333.3333333333333
 20
5333.333333333333
 30
0.0
 40
400.0
  0
TEXT
  5
14A
330
17
100
AcDbEntity
  8
原始结构-房间标号
100
AcDbText
 10
333.3333333333333
 20
5183.333333333333
 30
0.0
 40
300.0
  1
6
 72
1
 11
333.3333333333333
 21
5183.333333333333
 31
0.0
100
AcDbText
  0
TEXT
  5
14B
330
17
100
AcDbEntity
  8
原始结构-房间标号
100
AcDbText
 10
933.3333333333333
 20
5333.333333333333
 30
0.0
 40
200.0
  1
玄关 (1500×1200)
 11
933.3333333333333
 21
5333.333333333333
 31
0.0
100
AcDbText
  0
TEXT
  5
153
330
17
100
AcDbEntity
  8
AI方案-布局建议
100
AcDbText
 10
200.0
 20
200.0
 30
0.0
 40
400.0
  1
【AI 布局建议】方案A
 11
200.0
 21
200.0
 31
0.0
100
AcDbText
  0
TEXT
  5
154
330
17
100
AcDbEntity
  8
AI方案-布局建议
100
AcDbText
 10
200.0
 20
300.0
 30
0.0
 40
250.0
  1
核心理念: 以通透感与功能分区为核心，优化采光与动线
 11
200.0
 21
300.0
 31
0.0
100
AcDbText
  0
TEXT
  5
155
330
17
100
AcDbEntity
  8
AI方案-功能分区
100
AcDbText
 10
200.0
 20
440.0
 30
0.0
 40
300.0
  1
▶ 客厅
 11
200.0
 21
440.0
 31
0.0
100
AcDbText
  0
TEXT
  5
156
330
17
100
AcDbEntity
  8
AI方案-功能分区
100
AcDbText
 10
200.0
 20
520.0
 30
0.0
 40
200.0
  1
  沙发靠西墙放置，L型布艺沙发，尺寸建议2800×1800
 11
200.0
 21
520.0
 31
0.0
100
AcDbText
  0
TEXT
  5
157
330
17
100
AcDbEntity
  8
AI方案-功能分区
100
AcDbText
 10
200.0
 20
565.0
 30
0.0
 40
200.0
  1
  电视墙设在东墙做整面收纳柜，深度400mm，搭配投影幕布
 11
200.0
 21
565.0
 31
0.0
100
AcDbText
  0
TEXT
  5
158
330
17
100
AcDbEntity
  8
AI方案-功能分区
100
AcDbText
 10
200.0
 20
610.0
 30
0.0
 40
200.0
  1
  南侧落地窗前保留1200mm通道，保持采光通透
 11
200.0
 21
610.0
 31
0.0
100
AcDbText
  0
TEXT
  5
159
330
17
100
AcDbEntity
  8
AI方案-功能分区
100
AcDbText
 10
200.0
 20
655.0
 30
0.0
 40
200.0
  1
  北侧留800mm通道连接玄关与厨房
 11
200.0
 21
655.0
 31
0.0
100
AcDbText
  0
TEXT
  5
15A
330
17
100
AcDbEntity
  8
AI方案-家具建议
100
AcDbText
 10
200.0
 20
720.0
 30
0.0
 40
200.0
  1
  L型沙发  [2800×1800]  灰色布艺
 11
200.0
 21
720.0
 31
0.0
100
AcDbText
  0
TEXT
  5
15B
330
17
100
AcDbEntity
  8
AI方案-家具建议
100
AcDbText
 10
200.0
 20
760.0
 30
0.0
 40
200.0
  1
  茶几  [1200×600]  岩板
 11
200.0
 21
760.0
 31
0.0
100
AcDbText
  0
TEXT
  5
15C
330
17
100
AcDbEntity
  8
AI方案-家具建议
100
AcDbText
 10
200.0
 20
800.0
 30
0.0
 40
200.0
  1
  电视柜  [3000×400]  悬空木制
 11
200.0
 21
800.0
 31
0.0
100
AcDbText
  0
TEXT
  5
15D
330
17
100
AcDbEntity
  8
AI方案-布局建议
100
AcDbText
 10
200.0
 20
840.0
 30
0.0
 40
180.0
  1
  ⚠ 梁若位于天花中央，建议局部吊顶修饰；结构柱若在墙角，可包柱做装饰柱或嵌入式柜体
 11
200.0
 21
840.0
 31
0.0
100
AcDbText
  0
TEXT
  5
15E
330
17
100
AcDbEntity
  8
AI方案-功能分区
100
AcDbText
 10
200.0
 20
920.0
 30
0.0
 40
300.0
  1
▶ 厨房
 11
200.0
 21
920.0
 31
0.0
100
AcDbText
  0
TEXT
  5
15F
330
17
100
AcDbEntity
  8
AI方案-功能分区
100
AcDbText
 10
200.0
 20
1000.0
 30
0.0
 40
200.0
  1
  沿三面墙布置L型橱柜，尺寸建议：地柜总长2500+3000mm，台面深度600mm
 11
200.0
 21
1000.0
 31
0.0
100
AcDbText
  0
TEXT
  5
160
330
17
100
AcDbEntity
  8
AI方案-功能分区
100
AcDbText
 10
200.0
 20
1045.0
 30
0.0
 40
200.0
  1
  水槽靠窗放置，灶台居中，留出操作区
 11
200.0
 21
1045.0
 31
0.0
100
AcDbText
  0
TEXT
  5
161
330
17
100
AcDbEntity
  8
AI方案-功能分区
100
AcDbText
 10
200.0
 20
1090.0
 30
0.0
 40
200.0
  1
  冰箱放置于入口侧，尺寸建议700×700mm
 11
200.0
 21
1090.0
 31
0.0
100
AcDbText
  0
TEXT
  5
162
330
17
100
AcDbEntity
  8
AI方案-家具建议
100
AcDbText
 10
200.0
 20
1155.0
 30
0.0
 40
200.0
  1
  地柜  [L型总长5500mm]  石英石台面+烤漆面板
 11
200.0
 21
1155.0
 31
0.0
100
AcDbText
  0
TEXT
  5
163
330
17
100
AcDbEntity
  8
AI方案-家具建议
100
AcDbText
 10
200.0
 20
1195.0
 30
0.0
 40
200.0
  1
  吊柜  [总长3000mm]  白色哑光
 11
200.0
 21
1195.0
 31
0.0
100
AcDbText
  0
TEXT
  5
164
330
17
100
AcDbEntity
  8
AI方案-家具建议
100
AcDbText
 10
200.0
 20
1235.0
 30
0.0
 40
200.0
  1
  冰箱  [700×700]  不锈钢
 11
200.0
 21
1235.0
 31
0.0
100
AcDbText
  0
TEXT
  5
165
330
17
100
AcDbEntity
  8
AI方案-布局建议
100
AcDbText
 10
200.0
 20
1275.0
 30
0.0
 40
180.0
  1
  ⚠ 梁若在厨房中间，建议吊顶包梁；结构柱若在墙角，可绕柱做转角柜
 11
200.0
 21
1275.0
 31
0.0
100
AcDbText
  0
TEXT
  5
166
330
17
100
AcDbEntity
  8
AI方案-功能分区
100
AcDbText
 10
200.0
 20
1355.0
 30
0.0
 40
300.0
  1
▶ 主卧
 11
200.0
 21
1355.0
 31
0.0
100
AcDbText
  0
TEXT
  5
167
330
17
100
AcDbEntity
  8
AI方案-功能分区
100
AcDbText
 10
200.0
 20
1435.0
 30
0.0
 40
200.0
  1
  床靠东墙放置，尺寸建议1800×2000mm，双侧留600mm通道
 11
200.0
 21
1435.0
 31
0.0
100
AcDbText
  0
TEXT
  5
168
330
17
100
AcDbEntity
  8
AI方案-功能分区
100
AcDbText
 10
200.0
 20
1480.0
 30
0.0
 40
200.0
  1
  西墙做整面衣柜，深度600mm，长度3500mm
 11
200.0
 21
1480.0
 31
0.0
100
AcDbText
  0
TEXT
  5
169
330
17
100
AcDbEntity
  8
AI方案-功能分区
100
AcDbText
 10
200.0
 20
1525.0
 30
0.0
 40
200.0
  1
  南侧窗前放置梳妆台或休闲椅，尺寸建议1200×500mm
 11
200.0
 21
1525.0
 31
0.0
100
AcDbText
  0
TEXT
  5
16A
330
17
100
AcDbEntity
  8
AI方案-家具建议
100
AcDbText
 10
200.0
 20
1590.0
 30
0.0
 40
200.0
  1
  双人床  [1800×2000]  实木框架+软包床头
 11
200.0
 21
1590.0
 31
0.0
100
AcDbText
  0
TEXT
  5
16B
330
17
100
AcDbEntity
  8
AI方案-家具建议
100
AcDbText
 10
200.0
 20
1630.0
 30
0.0
 40
200.0
  1
  衣柜  [3500×600]  平板门+白色
 11
200.0
 21
1630.0
 31
0.0
100
AcDbText
  0
TEXT
  5
16C
330
17
100
AcDbEntity
  8
AI方案-家具建议
100
AcDbText
 10
200.0
 20
1670.0
 30
0.0
 40
200.0
  1
  梳妆台  [1200×500]  木制
 11
200.0
 21
1670.0
 31
0.0
100
AcDbText
  0
TEXT
  5
16D
330
17
100
AcDbEntity
  8
AI方案-布局建议
100
AcDbText
 10
200.0
 20
1710.0
 30
0.0
 40
180.0
  1
  ⚠ 梁若在床正上方，建议床头吊顶修饰；结构柱若在墙角，可做衣帽间转角处理
 11
200.0
 21
1710.0
 31
0.0
100
AcDbText
  0
TEXT
  5
16E
330
17
100
AcDbEntity
  8
AI方案-功能分区
100
AcDbText
 10
200.0
 20
1790.0
 30
0.0
 40
300.0
  1
▶ 次卧
 11
200.0
 21
1790.0
 31
0.0
100
AcDbText
  0
TEXT
  5
16F
330
17
100
AcDbEntity
  8
AI方案-功能分区
100
AcDbText
 10
200.0
 20
1870.0
 30
0.0
 40
200.0
  1
  床靠西墙放置，尺寸建议1500×2000mm，靠窗侧留600mm通道
 11
200.0
 21
1870.0
 31
0.0
100
AcDbText
  0
TEXT
  5
170
330
17
100
AcDbEntity
  8
AI方案-功能分区
100
AcDbText
 10
200.0
 20
1915.0
 30
0.0
 40
200.0
  1
  北墙做衣柜，深度550mm，长度2000mm
 11
200.0
 21
1915.0
 31
0.0
100
AcDbText
  0
TEXT
  5
171
330
17
100
AcDbEntity
  8
AI方案-功能分区
100
AcDbText
 10
200.0
 20
1960.0
 30
0.0
 40
200.0
  1
  南侧角落放置书桌，尺寸建议1000×500mm
 11
200.0
 21
1960.0
 31
0.0
100
AcDbText
  0
TEXT
  5
172
330
17
100
AcDbEntity
  8
AI方案-家具建议
100
AcDbText
 10
200.0
 20
2025.0
 30
0.0
 40
200.0
  1
  单人床  [1500×2000]  实木
 11
200.0
 21
2025.0
 31
0.0
100
AcDbText
  0
TEXT
  5
173
330
17
100
AcDbEntity
  8
AI方案-家具建议
100
AcDbText
 10
200.0
 20
2065.0
 30
0.0
 40
200.0
  1
  衣柜  [2000×550]  白色烤漆
 11
200.0
 21
2065.0
 31
0.0
100
AcDbText
  0
TEXT
  5
174
330
17
100
AcDbEntity
  8
AI方案-家具建议
100
AcDbText
 10
200.0
 20
2105.0
 30
0.0
 40
200.0
  1
  书桌  [1000×500]  木制
 11
200.0
 21
2105.0
 31
0.0
100
AcDbText
  0
TEXT
  5
175
330
17
100
AcDbEntity
  8
AI方案-布局建议
100
AcDbText
 10
200.0
 20
2145.0
 30
0.0
 40
180.0
  1
  ⚠ 梁若在床尾，可做吊顶过渡；结构柱若在窗边，可包柱做书架
 11
200.0
 21
2145.0
 31
0.0
100
AcDbText
  0
TEXT
  5
176
330
17
100
AcDbEntity
  8
AI方案-功能分区
100
AcDbText
 10
200.0
 20
2225.0
 30
0.0
 40
300.0
  1
▶ 卫生间
 11
200.0
 21
2225.0
 31
0.0
100
AcDbText
  0
TEXT
  5
177
330
17
100
AcDbEntity
  8
AI方案-功能分区
100
AcDbText
 10
200.0
 20
2305.0
 30
0.0
 40
200.0
  1
  洗手台靠门侧墙面，尺寸建议800×500mm
 11
200.0
 21
2305.0
 31
0.0
100
AcDbText
  0
TEXT
  5
178
330
17
100
AcDbEntity
  8
AI方案-功能分区
100
AcDbText
 10
200.0
 20
2350.0
 30
0.0
 40
200.0
  1
  马桶居中靠后墙，预留600mm宽度
 11
200.0
 21
2350.0
 31
0.0
100
AcDbText
  0
TEXT
  5
179
330
17
100
AcDbEntity
  8
AI方案-功能分区
100
AcDbText
 10
200.0
 20
2395.0
 30
0.0
 40
200.0
  1
  淋浴区靠内角，做玻璃隔断，尺寸建议900×900mm
 11
200.0
 21
2395.0
 31
0.0
100
AcDbText
  0
TEXT
  5
17A
330
17
100
AcDbEntity
  8
AI方案-家具建议
100
AcDbText
 10
200.0
 20
2460.0
 30
0.0
 40
200.0
  1
  洗手台  [800×500]  陶瓷+台下盆
 11
200.0
 21
2460.0
 31
0.0
100
AcDbText
  0
TEXT
  5
17B
330
17
100
AcDbEntity
  8
AI方案-家具建议
100
AcDbText
 10
200.0
 20
2500.0
 30
0.0
 40
200.0
  1
  马桶  [标准]  陶瓷
 11
200.0
 21
2500.0
 31
0.0
100
AcDbText
  0
TEXT
  5
17C
330
17
100
AcDbEntity
  8
AI方案-家具建议
100
AcDbText
 10
200.0
 20
2540.0
 30
0.0
 40
200.0
  1
  淋浴隔断  [900×900]  钢化玻璃
 11
200.0
 21
2540.0
 31
0.0
100
AcDbText
  0
TEXT
  5
17D
330
17
100
AcDbEntity
  8
AI方案-布局建议
100
AcDbText
 10
200.0
 20
2580.0
 30
0.0
 40
180.0
  1
  ⚠ 梁若在淋浴区上方，需做防水吊顶；结构柱若在角落，可包柱做壁龛
 11
200.0
 21
2580.0
 31
0.0
100
AcDbText
  0
TEXT
  5
17E
330
17
100
AcDbEntity
  8
AI方案-功能分区
100
AcDbText
 10
200.0
 20
2660.0
 30
0.0
 40
300.0
  1
▶ 玄关
 11
200.0
 21
2660.0
 31
0.0
100
AcDbText
  0
TEXT
  5
17F
330
17
100
AcDbEntity
  8
AI方案-功能分区
100
AcDbText
 10
200.0
 20
2740.0
 30
0.0
 40
200.0
  1
  靠右侧墙面做薄型鞋柜，深度300mm，长度1200mm
 11
200.0
 21
2740.0
 31
0.0
100
AcDbText
  0
TEXT
  5
180
330
17
100
AcDbEntity
  8
AI方案-功能分区
100
AcDbText
 10
200.0
 20
2785.0
 30
0.0
 40
200.0
  1
  对面墙面挂全身镜，尺寸建议400×1200mm
 11
200.0
 21
2785.0
 31
0.0
100
AcDbText
  0
TEXT
  5
181
330
17
100
AcDbEntity
  8
AI方案-功能分区
100
AcDbText
 10
200.0
 20
2830.0
 30
0.0
 40
200.0
  1
  地面铺设落尘区地砖，与客厅地板区分
 11
200.0
 21
2830.0
 31
0.0
100
AcDbText
  0
TEXT
  5
182
330
17
100
AcDbEntity
  8
AI方案-家具建议
100
AcDbText
 10
200.0
 20
2895.0
 30
0.0
 40
200.0
  1
  鞋柜  [1200×300]  白色烤漆
 11
200.0
 21
2895.0
 31
0.0
100
AcDbText
  0
TEXT
  5
183
330
17
100
AcDbEntity
  8
AI方案-家具建议
100
AcDbText
 10
200.0
 20
2935.0
 30
0.0
 40
200.0
  1
  全身镜  [400×1200]  银镜
 11
200.0
 21
2935.0
 31
0.0
100
AcDbText
  0
TEXT
  5
184
330
17
100
AcDbEntity
  8
AI方案-家具建议
100
AcDbText
 10
200.0
 20
2975.0
 30
0.0
 40
200.0
  1
  换鞋凳  [800×400]  木质
 11
200.0
 21
2975.0
 31
0.0
100
AcDbText
  0
TEXT
  5
185
330
17
100
AcDbEntity
  8
AI方案-布局建议
100
AcDbText
 10
200.0
 20
3015.0
 30
0.0
 40
180.0
  1
  ⚠ 梁若在玄关入口，可做局部吊顶；结构柱若在墙角，可绕柱做挂衣区
 11
200.0
 21
3015.0
 31
0.0
100
AcDbText
  0
TEXT
  5
186
330
17
100
AcDbEntity
  8
AI方案-动线分析
100
AcDbText
 10
200.0
 20
3095.0
 30
0.0
 40
250.0
  1
动线分析:
 11
200.0
 21
3095.0
 31
0.0
100
AcDbText
  0
TEXT
  5
187
330
17
100
AcDbEntity
  8
AI方案-动线分析
100
AcDbText
 10
200.0
 20
3150.0
 30
0.0
 40
200.0
  1
  入户玄关直通客厅，左侧连接厨房，形成L型主动线；卧室走廊位于客厅北侧，动静分区明确；卫生间靠近主卧与次卧，使用便利
 11
200.0
 21
3150.0
 31
0.0
100
AcDbText
  0
TEXT
  5
188
330
17
100
AcDbEntity
  8
AI方案-布局建议
100
AcDbText
 10
200.0
 20
3230.0
 30
0.0
 40
250.0
  1
设计亮点:
 11
200.0
 21
3230.0
 31
0.0
100
AcDbText
  0
TEXT
  5
189
330
17
100
AcDbEntity
  8
AI方案-布局建议
100
AcDbText
 10
200.0
 20
3285.0
 30
0.0
 40
200.0
  1
  客厅与玄关通透衔接，保持空间开阔感
 11
200.0
 21
3285.0
 31
0.0
100
AcDbText
  0
TEXT
  5
18A
330
17
100
AcDbEntity
  8
AI方案-布局建议
100
AcDbText
 10
200.0
 20
3325.0
 30
0.0
 40
200.0
  1
  厨房U型布局最大化操作台面与储物
 11
200.0
 21
3325.0
 31
0.0
100
AcDbText
  0
TEXT
  5
18B
330
17
100
AcDbEntity
  8
AI方案-布局建议
100
AcDbText
 10
200.0
 20
3365.0
 30
0.0
 40
200.0
  1
  主卧衣柜整面墙设计，收纳充足且视觉整洁
 11
200.0
 21
3365.0
 31
0.0
100
AcDbText
  0
TEXT
  5
18C
330
17
100
AcDbEntity
  8
AI方案-布局建议
100
AcDbText
 10
200.0
 20
3405.0
 30
0.0
 40
200.0
  1
  卫生间干湿分离，提高使用效率
 11
200.0
 21
3405.0
 31
0.0
100
AcDbText
  0
ENDSEC
  0
SECTION
  2
OBJECTS
  0
DICTIONARY
  5
A
330
0
100
AcDbDictionary
281
1
  3
ACAD_COLOR
350
B
  3
ACAD_GROUP
350
C
  3
ACAD_LAYOUT
350
D
  3
ACAD_MATERIAL
350
E
  3
ACAD_MLEADERSTYLE
350
F
  3
ACAD_MLINESTYLE
350
10
  3
ACAD_PLOTSETTINGS
350
11
  3
ACAD_PLOTSTYLENAME
350
12
  3
ACAD_SCALELIST
350
14
  3
ACAD_TABLESTYLE
350
15
  3
ACAD_VISUALSTYLE
350
16
  3
EZDXF_META
350
2D
  0
DICTIONARY
  5
B
330
A
100
AcDbDictionary
281
1
  0
DICTIONARY
  5
C
330
A
100
AcDbDictionary
281
1
  0
DICTIONARY
  5
D
330
A
100
AcDbDictionary
281
1
  3
Model
350
1A
  3
Layout1
350
1E
  0
DICTIONARY
  5
E
330
A
100
AcDbDictionary
281
1
  3
ByBlock
350
1F
  3
ByLayer
350
20
  3
Global
350
21
  0
DICTIONARY
  5
F
330
A
100
AcDbDictionary
281
1
  3
Standard
350
2C
  0
DICTIONARY
  5
10
330
A
100
AcDbDictionary
281
1
  3
Standard
350
22
  0
DICTIONARY
  5
11
330
A
100
AcDbDictionary
281
1
  0
ACDBDICTIONARYWDFLT
  5
12
330
A
100
AcDbDictionary
281
1
  3
Normal
350
13
100
AcDbDictionaryWithDefault
340
13
  0
ACDBPLACEHOLDER
  5
13
330
12
  0
DICTIONARY
  5
14
330
A
100
AcDbDictionary
281
1
  0
DICTIONARY
  5
15
330
A
100
AcDbDictionary
281
1
  0
DICTIONARY
  5
16
330
A
100
AcDbDictionary
281
1
  0
LAYOUT
  5
1A
330
D
100
AcDbPlotSettings
  1

  4
A3
  6

 40
7.5
 41
20.0
 42
7.5
 43
20.0
 44
420.0
 45
297.0
 46
0.0
 47
0.0
 48
0.0
 49
0.0
140
0.0
141
0.0
142
1.0
143
1.0
 70
1024
 72
1
 73
0
 74
5
  7

 75
16
 76
0
 77
2
 78
300
147
1.0
148
0.0
149
0.0
100
AcDbLayout
  1
Model
 70
1
 71
0
 10
0.0
 20
0.0
 11
420.0
 21
297.0
 12
0.0
 22
0.0
 32
0.0
 14
1e+20
 24
1e+20
 34
1e+20
 15
-1e+20
 25
-1e+20
 35
-1e+20
146
0.0
 13
0.0
 23
0.0
 33
0.0
 16
1.0
 26
0.0
 36
0.0
 17
0.0
 27
1.0
 37
0.0
 76
1
330
17
  0
LAYOUT
  5
1E
330
D
100
AcDbPlotSettings
  1

  4
A3
  6

 40
7.5
 41
20.0
 42
7.5
 43
20.0
 44
420.0
 45
297.0
 46
0.0
 47
0.0
 48
0.0
 49
0.0
140
0.0
141
0.0
142
1.0
143
1.0
 70
0
 72
1
 73
0
 74
5
  7

 75
16
 76
0
 77
2
 78
300
147
1.0
148
0.0
149
0.0
100
AcDbLayout
  1
Layout1
 70
1
 71
1
 10
0.0
 20
0.0
 11
420.0
 21
297.0
 12
0.0
 22
0.0
 32
0.0
 14
1e+20
 24
1e+20
 34
1e+20
 15
-1e+20
 25
-1e+20
 35
-1e+20
146
0.0
 13
0.0
 23
0.0
 33
0.0
 16
1.0
 26
0.0
 36
0.0
 17
0.0
 27
1.0
 37
0.0
 76
1
330
1B
  0
MATERIAL
  5
1F
102
{ACAD_REACTORS
330
E
102
}
330
E
100
AcDbMaterial
  1
ByBlock
  2

 70
0
 40
1.0
 71
1
 41
1.0
 91
-1023410177
 42
1.0
 72
1
  3

 73
1
 74
1
 75
1
 44
0.5
 73
0
 45
1.0
 46
1.0
 77
1
  4

 78
1
 79
1
170
1
 48
1.0
171
1
  6

172
1
173
1
174
1
140
1.0
141
1.0
175
1
  7

176
1
177
1
178
1
143
1.0
179
1
  8

270
1
271
1
272
1
145
1.0
146
1.0
273
1
  9

274
1
275
1
276
1
 42
1.0
 72
1
  3

 73
1
 74
1
 75
1
 94
63
  0
MATERIAL
  5
20
102
{ACAD_REACTORS
330
E
102
}
330
E
100
AcDbMaterial
  1
ByLayer
  2

 70
0
 40
1.0
 71
1
 41
1.0
 91
-1023410177
 42
1.0
 72
1
  3

 73
1
 74
1
 75
1
 44
0.5
 73
0
 45
1.0
 46
1.0
 77
1
  4

 78
1
 79
1
170
1
 48
1.0
171
1
  6

172
1
173
1
174
1
140
1.0
141
1.0
175
1
  7

176
1
177
1
178
1
143
1.0
179
1
  8

270
1
271
1
272
1
145
1.0
146
1.0
273
1
  9

274
1
275
1
276
1
 42
1.0
 72
1
  3

 73
1
 74
1
 75
1
 94
63
  0
MATERIAL
  5
21
102
{ACAD_REACTORS
330
E
102
}
330
E
100
AcDbMaterial
  1
Global
  2

 70
0
 40
1.0
 71
1
 41
1.0
 91
-1023410177
 42
1.0
 72
1
  3

 73
1
 74
1
 75
1
 44
0.5
 73
0
 45
1.0
 46
1.0
 77
1
  4

 78
1
 79
1
170
1
 48
1.0
171
1
  6

172
1
173
1
174
1
140
1.0
141
1.0
175
1
  7

176
1
177
1
178
1
143
1.0
179
1
  8

270
1
271
1
272
1
145
1.0
146
1.0
273
1
  9

274
1
275
1
276
1
 42
1.0
 72
1
  3

 73
1
 74
1
 75
1
 94
63
  0
MLINESTYLE
  5
22
102
{ACAD_REACTORS
330
10
102
}
330
10
100
AcDbMlineStyle
  2
Standard
 70
0
  3

 62
256
 51
90.0
 52
90.0
 71
2
 49
0.5
 62
256
  6
BYLAYER
 49
-0.5
 62
256
  6
BYLAYER
  0
MLEADERSTYLE
  5
2C
102
{ACAD_REACTORS
330
F
102
}
330
F
100
AcDbMLeaderStyle
179
2
170
2
171
1
172
0
 90
2
 40
0.0
 41
0.0
173
1
 91
-1056964608
 92
-2
290
1
 42
2.0
291
1
 43
8.0
  3
Standard
 44
4.0
300

342
29
174
1
175
1
176
0
178
1
 93
-1056964608
 45
4.0
292
0
297
0
 46
4.0
 94
-1056964608
 47
1.0
 49
1.0
140
1.0
294
1
141
0.0
177
0
142
1.0
295
0
296
0
143
3.75
271
0
272
9
273
9
  0
DICTIONARY
  5
2D
330
A
100
AcDbDictionary
280
1
281
1
  3
CREATED_BY_EZDXF
350
2E
  3
WRITTEN_BY_EZDXF
350
14E
  0
DICTIONARYVAR
  5
2E
330
2D
100
DictionaryVariables
280
0
  1
1.4.4 @ 2026-06-11T22:01:40.956063+00:00
  0
DICTIONARYVAR
  5
14E
330
2D
100
DictionaryVariables
280
0
  1
1.4.4 @ 2026-06-11T22:02:48.280256+00:00
  0
ENDSEC
  0
EOF
